<?xml version="1.0" encoding="UTF-8" standalone="no"?>
<!DOCTYPE svg PUBLIC "-//W3C//DTD SVG 1.1//EN"
 "http://www.w3.org/Graphics/SVG/1.1/DTD/svg11.dtd">
<!-- Generated by graphviz version 12.1.2 (20240928.0832)
 -->
<!-- Title: admins Pages: 1 -->
<svg width="555pt" height="725pt"
 viewBox="0.00 0.00 555.36 725.20" xmlns="http://www.w3.org/2000/svg" xmlns:xlink="http://www.w3.org/1999/xlink">
<g id="graph0" class="graph" transform="scale(1 1) rotate(0) translate(4 721.2)">
<title>admins</title>
<polygon fill="white" stroke="none" points="-4,4 -4,-721.2 551.36,-721.2 551.36,4 -4,4"/>
<!-- admins -->
<g id="node1" class="node">
<title>admins</title>
<polygon fill="#efefef" stroke="none" points="61.49,-292.6 61.49,-328.2 272.35,-328.2 272.35,-292.6 61.49,-292.6"/>
<polygon fill="none" stroke="black" points="61.49,-292.6 61.49,-328.2 272.35,-328.2 272.35,-292.6 61.49,-292.6"/>
<text text-anchor="start" x="78.68" y="-306" font-family="Arial Bold" font-size="18.00">admins</text>
<text text-anchor="start" x="130.67" y="-306" font-family="Arial" font-size="14.00">    </text>
<text text-anchor="start" x="161.79" y="-306" font-family="Arial" font-size="14.00" fill="#666666">[BASE TABLE]</text>
<polygon fill="none" stroke="black" points="61.49,-261.8 61.49,-292.6 272.35,-292.6 272.35,-261.8 61.49,-261.8"/>
<text text-anchor="start" x="68.49" y="-274" font-family="Arial" font-size="14.00">id </text>
<text text-anchor="start" x="83.27" y="-274" font-family="Arial" font-size="14.00" fill="#666666">[bigint unsigned]</text>
<polygon fill="none" stroke="black" points="61.49,-231 61.49,-261.8 272.35,-261.8 272.35,-231 61.49,-231"/>
<text text-anchor="start" x="68.49" y="-243.2" font-family="Arial" font-size="14.00">name </text>
<text text-anchor="start" x="107.4" y="-243.2" font-family="Arial" font-size="14.00" fill="#666666">[varchar(255)]</text>
<polygon fill="none" stroke="black" points="61.49,-200.2 61.49,-231 272.35,-231 272.35,-200.2 61.49,-200.2"/>
<text text-anchor="start" x="68.49" y="-212.4" font-family="Arial" font-size="14.00">email </text>
<text text-anchor="start" x="105.83" y="-212.4" font-family="Arial" font-size="14.00" fill="#666666">[varchar(64)]</text>
<polygon fill="none" stroke="black" points="61.49,-169.4 61.49,-200.2 272.35,-200.2 272.35,-169.4 61.49,-169.4"/>
<text text-anchor="start" x="68.49" y="-181.6" font-family="Arial" font-size="14.00">password </text>
<text text-anchor="start" x="132.3" y="-181.6" font-family="Arial" font-size="14.00" fill="#666666">[varchar(255)]</text>
<polygon fill="none" stroke="black" points="61.49,-138.6 61.49,-169.4 272.35,-169.4 272.35,-138.6 61.49,-138.6"/>
<text text-anchor="start" x="68.49" y="-150.8" font-family="Arial" font-size="14.00">role </text>
<text text-anchor="start" x="95.72" y="-150.8" font-family="Arial" font-size="14.00" fill="#666666">[varchar(255)]</text>
<polygon fill="none" stroke="black" points="61.49,-107.8 61.49,-138.6 272.35,-138.6 272.35,-107.8 61.49,-107.8"/>
<text text-anchor="start" x="68.49" y="-120" font-family="Arial" font-size="14.00">remember_token </text>
<text text-anchor="start" x="178.21" y="-120" font-family="Arial" font-size="14.00" fill="#666666">[varchar(100)]</text>
<polygon fill="none" stroke="black" points="61.49,-77 61.49,-107.8 272.35,-107.8 272.35,-77 61.49,-77"/>
<text text-anchor="start" x="68.49" y="-89.2" font-family="Arial" font-size="14.00">created_at </text>
<text text-anchor="start" x="138.54" y="-89.2" font-family="Arial" font-size="14.00" fill="#666666">[datetime]</text>
<polygon fill="none" stroke="black" points="61.49,-46.2 61.49,-77 272.35,-77 272.35,-46.2 61.49,-46.2"/>
<text text-anchor="start" x="68.49" y="-58.4" font-family="Arial" font-size="14.00">updated_at </text>
<text text-anchor="start" x="142.45" y="-58.4" font-family="Arial" font-size="14.00" fill="#666666">[datetime]</text>
<polygon fill="none" stroke="black" stroke-width="3" points="59.99,-44.7 59.99,-329.7 273.85,-329.7 273.85,-44.7 59.99,-44.7"/>
</g>
<!-- contact_replies -->
<g id="node2" class="node">
<title>contact_replies</title>
<polygon fill="#efefef" stroke="none" points="43.2,-638.4 43.2,-674 290.64,-674 290.64,-638.4 43.2,-638.4"/>
<polygon fill="none" stroke="black" points="43.2,-638.4 43.2,-674 290.64,-674 290.64,-638.4 43.2,-638.4"/>
<text text-anchor="start" x="50.2" y="-651.8" font-family="Arial Bold" font-size="18.00">contact_replies</text>
<text text-anchor="start" x="159.15" y="-651.8" font-family="Arial" font-size="14.00">    </text>
<text text-anchor="start" x="190.27" y="-651.8" font-family="Arial" font-size="14.00" fill="#666666">[BASE TABLE]</text>
<polygon fill="none" stroke="black" points="43.2,-607.6 43.2,-638.4 290.64,-638.4 290.64,-607.6 43.2,-607.6"/>
<text text-anchor="start" x="50.2" y="-619.8" font-family="Arial" font-size="14.00">id </text>
<text text-anchor="start" x="64.99" y="-619.8" font-family="Arial" font-size="14.00" fill="#666666">[bigint unsigned]</text>
<polygon fill="none" stroke="black" points="43.2,-576.8 43.2,-607.6 290.64,-607.6 290.64,-576.8 43.2,-576.8"/>
<text text-anchor="start" x="50.2" y="-589" font-family="Arial" font-size="14.00">contact_id </text>
<text text-anchor="start" x="117.91" y="-589" font-family="Arial" font-size="14.00" fill="#666666">[bigint unsigned]</text>
<polygon fill="none" stroke="black" points="43.2,-546 43.2,-576.8 290.64,-576.8 290.64,-546 43.2,-546"/>
<text text-anchor="start" x="50.2" y="-558.2" font-family="Arial" font-size="14.00">admin_id </text>
<text text-anchor="start" x="110.9" y="-558.2" font-family="Arial" font-size="14.00" fill="#666666">[bigint unsigned]</text>
<polygon fill="none" stroke="black" points="43.2,-515.2 43.2,-546 290.64,-546 290.64,-515.2 43.2,-515.2"/>
<text text-anchor="start" x="50.2" y="-527.4" font-family="Arial" font-size="14.00">body </text>
<text text-anchor="start" x="84.45" y="-527.4" font-family="Arial" font-size="14.00" fill="#666666">[varchar(1000)]</text>
<polygon fill="none" stroke="black" points="43.2,-484.4 43.2,-515.2 290.64,-515.2 290.64,-484.4 43.2,-484.4"/>
<text text-anchor="start" x="50.2" y="-496.6" font-family="Arial" font-size="14.00">created_at </text>
<text text-anchor="start" x="120.25" y="-496.6" font-family="Arial" font-size="14.00" fill="#666666">[datetime]</text>
<polygon fill="none" stroke="black" points="43.2,-453.6 43.2,-484.4 290.64,-484.4 290.64,-453.6 43.2,-453.6"/>
<text text-anchor="start" x="50.2" y="-465.8" font-family="Arial" font-size="14.00">updated_at </text>
<text text-anchor="start" x="124.16" y="-465.8" font-family="Arial" font-size="14.00" fill="#666666">[datetime]</text>
</g>
<!-- contact_replies&#45;&gt;admins -->
<g id="edge1" class="edge">
<title>contact_replies:admin_id&#45;&gt;admins:id</title>
<path fill="none" stroke="black" d="M301.61,-558.77C352.71,-530.12 333.05,-277.2 273.35,-277.2"/>
<polygon fill="black" stroke="black" points="301.63,-558.76 290.81,-556.96 296.47,-560.12 292.29,-561.23 292.29,-561.23 292.29,-561.23 296.47,-560.12 293.11,-565.67 301.63,-558.76"/>
<text text-anchor="start" x="298.64" y="-571.4" font-family="Arial" font-size="10.00">FOREIGN KEY (admin_id) REFERENCES admins (id)</text>
</g>
</g>
</svg>
