<?xml version="1.0" encoding="UTF-8" standalone="no"?>
<!DOCTYPE svg PUBLIC "-//W3C//DTD SVG 1.1//EN"
 "http://www.w3.org/Graphics/SVG/1.1/DTD/svg11.dtd">
<!-- Generated by graphviz version 12.1.2 (20240928.0832)
 -->
<!-- Title: alerts Pages: 1 -->
<svg width="516pt" height="1468pt"
 viewBox="0.00 0.00 516.35 1468.40" xmlns="http://www.w3.org/2000/svg" xmlns:xlink="http://www.w3.org/1999/xlink">
<g id="graph0" class="graph" transform="scale(1 1) rotate(0) translate(4 1464.4)">
<title>alerts</title>
<polygon fill="white" stroke="none" points="-4,4 -4,-1464.4 512.35,-1464.4 512.35,4 -4,4"/>
<!-- alerts -->
<g id="node1" class="node">
<title>alerts</title>
<polygon fill="#efefef" stroke="none" points="46.2,-1066.6 46.2,-1102.2 267.19,-1102.2 267.19,-1066.6 46.2,-1066.6"/>
<polygon fill="none" stroke="black" points="46.2,-1066.6 46.2,-1102.2 267.19,-1102.2 267.19,-1066.6 46.2,-1066.6"/>
<text text-anchor="start" x="74.96" y="-1080" font-family="Arial Bold" font-size="18.00">alerts</text>
<text text-anchor="start" x="113.94" y="-1080" font-family="Arial" font-size="14.00">    </text>
<text text-anchor="start" x="145.06" y="-1080" font-family="Arial" font-size="14.00" fill="#666666">[BASE TABLE]</text>
<polygon fill="none" stroke="black" points="46.2,-1035.8 46.2,-1066.6 267.19,-1066.6 267.19,-1035.8 46.2,-1035.8"/>
<text text-anchor="start" x="53.2" y="-1048" font-family="Arial" font-size="14.00">id </text>
<text text-anchor="start" x="67.99" y="-1048" font-family="Arial" font-size="14.00" fill="#666666">[bigint unsigned]</text>
<polygon fill="none" stroke="black" points="46.2,-1005 46.2,-1035.8 267.19,-1035.8 267.19,-1005 46.2,-1005"/>
<text text-anchor="start" x="53.2" y="-1017.2" font-family="Arial" font-size="14.00">user_id </text>
<text text-anchor="start" x="103.01" y="-1017.2" font-family="Arial" font-size="14.00" fill="#666666">[bigint unsigned]</text>
<polygon fill="none" stroke="black" points="46.2,-974.2 46.2,-1005 267.19,-1005 267.19,-974.2 46.2,-974.2"/>
<text text-anchor="start" x="53.2" y="-986.4" font-family="Arial" font-size="14.00">type </text>
<text text-anchor="start" x="83.55" y="-986.4" font-family="Arial" font-size="14.00" fill="#666666">[varchar(30)]</text>
<polygon fill="none" stroke="black" points="46.2,-943.4 46.2,-974.2 267.19,-974.2 267.19,-943.4 46.2,-943.4"/>
<text text-anchor="start" x="53.2" y="-955.6" font-family="Arial" font-size="14.00">symbol </text>
<text text-anchor="start" x="101.43" y="-955.6" font-family="Arial" font-size="14.00" fill="#666666">[varchar(20)]</text>
<polygon fill="none" stroke="black" points="46.2,-912.6 46.2,-943.4 267.19,-943.4 267.19,-912.6 46.2,-912.6"/>
<text text-anchor="start" x="53.2" y="-924.8" font-family="Arial" font-size="14.00">price_threshold </text>
<text text-anchor="start" x="152.81" y="-924.8" font-family="Arial" font-size="14.00" fill="#666666">[decimal(12,2)]</text>
<polygon fill="none" stroke="black" points="46.2,-881.8 46.2,-912.6 267.19,-912.6 267.19,-881.8 46.2,-881.8"/>
<text text-anchor="start" x="53.2" y="-894" font-family="Arial" font-size="14.00">price_direction </text>
<text text-anchor="start" x="148.14" y="-894" font-family="Arial" font-size="14.00" fill="#666666">[varchar(10)]</text>
<polygon fill="none" stroke="black" points="46.2,-851 46.2,-881.8 267.19,-881.8 267.19,-851 46.2,-851"/>
<text text-anchor="start" x="53.2" y="-863.2" font-family="Arial" font-size="14.00">volume_threshold </text>
<text text-anchor="start" x="167.6" y="-863.2" font-family="Arial" font-size="14.00" fill="#666666">[decimal(14,2)]</text>
<polygon fill="none" stroke="black" points="46.2,-820.2 46.2,-851 267.19,-851 267.19,-820.2 46.2,-820.2"/>
<text text-anchor="start" x="53.2" y="-832.4" font-family="Arial" font-size="14.00">volume_window </text>
<text text-anchor="start" x="156.7" y="-832.4" font-family="Arial" font-size="14.00" fill="#666666">[int]</text>
<polygon fill="none" stroke="black" points="46.2,-789.4 46.2,-820.2 267.19,-820.2 267.19,-789.4 46.2,-789.4"/>
<text text-anchor="start" x="53.2" y="-801.6" font-family="Arial" font-size="14.00">is_active </text>
<text text-anchor="start" x="111.56" y="-801.6" font-family="Arial" font-size="14.00" fill="#666666">[tinyint]</text>
<polygon fill="none" stroke="black" points="46.2,-758.6 46.2,-789.4 267.19,-789.4 267.19,-758.6 46.2,-758.6"/>
<text text-anchor="start" x="53.2" y="-770.8" font-family="Arial" font-size="14.00">last_triggered_at </text>
<text text-anchor="start" x="161.38" y="-770.8" font-family="Arial" font-size="14.00" fill="#666666">[datetime]</text>
<polygon fill="none" stroke="black" points="46.2,-727.8 46.2,-758.6 267.19,-758.6 267.19,-727.8 46.2,-727.8"/>
<text text-anchor="start" x="53.2" y="-740" font-family="Arial" font-size="14.00">created_at </text>
<text text-anchor="start" x="123.25" y="-740" font-family="Arial" font-size="14.00" fill="#666666">[datetime]</text>
<polygon fill="none" stroke="black" points="46.2,-697 46.2,-727.8 267.19,-727.8 267.19,-697 46.2,-697"/>
<text text-anchor="start" x="53.2" y="-709.2" font-family="Arial" font-size="14.00">updated_at </text>
<text text-anchor="start" x="127.16" y="-709.2" font-family="Arial" font-size="14.00" fill="#666666">[datetime]</text>
<polygon fill="none" stroke="black" stroke-width="3" points="44.7,-695.5 44.7,-1103.7 268.69,-1103.7 268.69,-695.5 44.7,-695.5"/>
</g>
<!-- users -->
<g id="node3" class="node">
<title>users</title>
<polygon fill="#efefef" stroke="none" points="45.01,-536 45.01,-571.6 268.38,-571.6 268.38,-536 45.01,-536"/>
<polygon fill="none" stroke="black" points="45.01,-536 45.01,-571.6 268.38,-571.6 268.38,-536 45.01,-536"/>
<text text-anchor="start" x="75.95" y="-549.4" font-family="Arial Bold" font-size="18.00">users</text>
<text text-anchor="start" x="112.95" y="-549.4" font-family="Arial" font-size="14.00">    </text>
<text text-anchor="start" x="144.07" y="-549.4" font-family="Arial" font-size="14.00" fill="#666666">[BASE TABLE]</text>
<polygon fill="none" stroke="black" points="45.01,-505.2 45.01,-536 268.38,-536 268.38,-505.2 45.01,-505.2"/>
<text text-anchor="start" x="52.01" y="-517.4" font-family="Arial" font-size="14.00">id </text>
<text text-anchor="start" x="66.8" y="-517.4" font-family="Arial" font-size="14.00" fill="#666666">[bigint unsigned]</text>
<polygon fill="none" stroke="black" points="45.01,-474.4 45.01,-505.2 268.38,-505.2 268.38,-474.4 45.01,-474.4"/>
<text text-anchor="start" x="52.01" y="-486.6" font-family="Arial" font-size="14.00">name </text>
<text text-anchor="start" x="90.92" y="-486.6" font-family="Arial" font-size="14.00" fill="#666666">[varchar(255)]</text>
<polygon fill="none" stroke="black" points="45.01,-443.6 45.01,-474.4 268.38,-474.4 268.38,-443.6 45.01,-443.6"/>
<text text-anchor="start" x="52.01" y="-455.8" font-family="Arial" font-size="14.00">email </text>
<text text-anchor="start" x="89.36" y="-455.8" font-family="Arial" font-size="14.00" fill="#666666">[varchar(255)]</text>
<polygon fill="none" stroke="black" points="45.01,-412.8 45.01,-443.6 268.38,-443.6 268.38,-412.8 45.01,-412.8"/>
<text text-anchor="start" x="52.01" y="-425" font-family="Arial" font-size="14.00">stripe_customer_id </text>
<text text-anchor="start" x="174.18" y="-425" font-family="Arial" font-size="14.00" fill="#666666">[varchar(255)]</text>
<polygon fill="none" stroke="black" points="45.01,-382 45.01,-412.8 268.38,-412.8 268.38,-382 45.01,-382"/>
<text text-anchor="start" x="52.01" y="-394.2" font-family="Arial" font-size="14.00">plan </text>
<text text-anchor="start" x="82.37" y="-394.2" font-family="Arial" font-size="14.00" fill="#666666">[varchar(20)]</text>
<polygon fill="none" stroke="black" points="45.01,-351.2 45.01,-382 268.38,-382 268.38,-351.2 45.01,-351.2"/>
<text text-anchor="start" x="52.01" y="-363.4" font-family="Arial" font-size="14.00">plan_expires_at </text>
<text text-anchor="start" x="154.75" y="-363.4" font-family="Arial" font-size="14.00" fill="#666666">[datetime]</text>
<polygon fill="none" stroke="black" points="45.01,-320.4 45.01,-351.2 268.38,-351.2 268.38,-320.4 45.01,-320.4"/>
<text text-anchor="start" x="52.01" y="-332.6" font-family="Arial" font-size="14.00">email_verified_at </text>
<text text-anchor="start" x="161.74" y="-332.6" font-family="Arial" font-size="14.00" fill="#666666">[datetime]</text>
<polygon fill="none" stroke="black" points="45.01,-289.6 45.01,-320.4 268.38,-320.4 268.38,-289.6 45.01,-289.6"/>
<text text-anchor="start" x="52.01" y="-301.8" font-family="Arial" font-size="14.00">password </text>
<text text-anchor="start" x="115.82" y="-301.8" font-family="Arial" font-size="14.00" fill="#666666">[varchar(255)]</text>
<polygon fill="none" stroke="black" points="45.01,-258.8 45.01,-289.6 268.38,-289.6 268.38,-258.8 45.01,-258.8"/>
<text text-anchor="start" x="52.01" y="-271" font-family="Arial" font-size="14.00">avatar_image_id </text>
<text text-anchor="start" x="159.41" y="-271" font-family="Arial" font-size="14.00" fill="#666666">[bigint unsigned]</text>
<polygon fill="none" stroke="black" points="45.01,-228 45.01,-258.8 268.38,-258.8 268.38,-228 45.01,-228"/>
<text text-anchor="start" x="52.01" y="-240.2" font-family="Arial" font-size="14.00">google_id </text>
<text text-anchor="start" x="116.63" y="-240.2" font-family="Arial" font-size="14.00" fill="#666666">[varchar(255)]</text>
<polygon fill="none" stroke="black" points="45.01,-197.2 45.01,-228 268.38,-228 268.38,-197.2 45.01,-197.2"/>
<text text-anchor="start" x="52.01" y="-209.4" font-family="Arial" font-size="14.00">avatar_url </text>
<text text-anchor="start" x="118.16" y="-209.4" font-family="Arial" font-size="14.00" fill="#666666">[varchar(255)]</text>
<polygon fill="none" stroke="black" points="45.01,-166.4 45.01,-197.2 268.38,-197.2 268.38,-166.4 45.01,-166.4"/>
<text text-anchor="start" x="52.01" y="-178.6" font-family="Arial" font-size="14.00">status </text>
<text text-anchor="start" x="93.26" y="-178.6" font-family="Arial" font-size="14.00" fill="#666666">[tinyint]</text>
<polygon fill="none" stroke="black" points="45.01,-135.6 45.01,-166.4 268.38,-166.4 268.38,-135.6 45.01,-135.6"/>
<text text-anchor="start" x="52.01" y="-147.8" font-family="Arial" font-size="14.00">remember_token </text>
<text text-anchor="start" x="161.73" y="-147.8" font-family="Arial" font-size="14.00" fill="#666666">[varchar(100)]</text>
<polygon fill="none" stroke="black" points="45.01,-104.8 45.01,-135.6 268.38,-135.6 268.38,-104.8 45.01,-104.8"/>
<text text-anchor="start" x="52.01" y="-117" font-family="Arial" font-size="14.00">created_at </text>
<text text-anchor="start" x="122.06" y="-117" font-family="Arial" font-size="14.00" fill="#666666">[datetime]</text>
<polygon fill="none" stroke="black" points="45.01,-74 45.01,-104.8 268.38,-104.8 268.38,-74 45.01,-74"/>
<text text-anchor="start" x="52.01" y="-86.2" font-family="Arial" font-size="14.00">updated_at </text>
<text text-anchor="start" x="125.97" y="-86.2" font-family="Arial" font-size="14.00" fill="#666666">[datetime]</text>
<polygon fill="none" stroke="black" points="45.01,-43.2 45.01,-74 268.38,-74 268.38,-43.2 45.01,-43.2"/>
<text text-anchor="start" x="52.01" y="-55.4" font-family="Arial" font-size="14.00">deleted_at </text>
<text text-anchor="start" x="121.3" y="-55.4" font-family="Arial" font-size="14.00" fill="#666666">[datetime]</text>
</g>
<!-- alerts&#45;&gt;users -->
<g id="edge2" class="edge">
<title>alerts:user_id&#45;&gt;users:id</title>
<path fill="none" stroke="black" d="M278.28,-1018.97C379.22,-989.65 376.97,-520.6 269.38,-520.6"/>
<polygon fill="black" stroke="black" points="278.42,-1018.95 267.89,-1015.9 273.14,-1019.7 268.85,-1020.31 268.85,-1020.31 268.85,-1020.31 273.14,-1019.7 269.16,-1024.81 278.42,-1018.95"/>
<text text-anchor="start" x="275.19" y="-1030.4" font-family="Arial" font-size="10.00">FOREIGN KEY (user_id) REFERENCES users (id)</text>
</g>
<!-- alert_logs -->
<g id="node2" class="node">
<title>alert_logs</title>
<polygon fill="#efefef" stroke="none" points="51.96,-1381.6 51.96,-1417.2 261.43,-1417.2 261.43,-1381.6 51.96,-1381.6"/>
<polygon fill="none" stroke="black" points="51.96,-1381.6 51.96,-1417.2 261.43,-1417.2 261.43,-1381.6 51.96,-1381.6"/>
<text text-anchor="start" x="58.96" y="-1395" font-family="Arial Bold" font-size="18.00">alert_logs</text>
<text text-anchor="start" x="129.94" y="-1395" font-family="Arial" font-size="14.00">    </text>
<text text-anchor="start" x="161.06" y="-1395" font-family="Arial" font-size="14.00" fill="#666666">[BASE TABLE]</text>
<polygon fill="none" stroke="black" points="51.96,-1350.8 51.96,-1381.6 261.43,-1381.6 261.43,-1350.8 51.96,-1350.8"/>
<text text-anchor="start" x="58.96" y="-1363" font-family="Arial" font-size="14.00">id </text>
<text text-anchor="start" x="73.75" y="-1363" font-family="Arial" font-size="14.00" fill="#666666">[bigint unsigned]</text>
<polygon fill="none" stroke="black" points="51.96,-1320 51.96,-1350.8 261.43,-1350.8 261.43,-1320 51.96,-1320"/>
<text text-anchor="start" x="58.96" y="-1332.2" font-family="Arial" font-size="14.00">alert_id </text>
<text text-anchor="start" x="108.77" y="-1332.2" font-family="Arial" font-size="14.00" fill="#666666">[bigint unsigned]</text>
<polygon fill="none" stroke="black" points="51.96,-1289.2 51.96,-1320 261.43,-1320 261.43,-1289.2 51.96,-1289.2"/>
<text text-anchor="start" x="58.96" y="-1301.4" font-family="Arial" font-size="14.00">user_id </text>
<text text-anchor="start" x="108.77" y="-1301.4" font-family="Arial" font-size="14.00" fill="#666666">[bigint unsigned]</text>
<polygon fill="none" stroke="black" points="51.96,-1258.4 51.96,-1289.2 261.43,-1289.2 261.43,-1258.4 51.96,-1258.4"/>
<text text-anchor="start" x="58.96" y="-1270.6" font-family="Arial" font-size="14.00">message </text>
<text text-anchor="start" x="119.66" y="-1270.6" font-family="Arial" font-size="14.00" fill="#666666">[varchar(255)]</text>
<polygon fill="none" stroke="black" points="51.96,-1227.6 51.96,-1258.4 261.43,-1258.4 261.43,-1227.6 51.96,-1227.6"/>
<text text-anchor="start" x="58.96" y="-1239.8" font-family="Arial" font-size="14.00">triggered_at </text>
<text text-anchor="start" x="137.57" y="-1239.8" font-family="Arial" font-size="14.00" fill="#666666">[datetime]</text>
</g>
<!-- alert_logs&#45;&gt;alerts -->
<g id="edge1" class="edge">
<title>alert_logs:alert_id&#45;&gt;alerts:id</title>
<path fill="none" stroke="black" d="M272.28,-1332.94C326.02,-1305.17 327.91,-1051.2 268.19,-1051.2"/>
<polygon fill="black" stroke="black" points="272.46,-1332.9 261.67,-1330.95 267.28,-1334.19 263.08,-1335.24 263.08,-1335.24 263.08,-1335.24 267.28,-1334.19 263.84,-1339.69 272.46,-1332.9"/>
<text text-anchor="start" x="269.43" y="-1345.4" font-family="Arial" font-size="10.00">FOREIGN KEY (alert_id) REFERENCES alerts (id)</text>
</g>
</g>
</svg>
