<?xml version="1.0" encoding="UTF-8" standalone="no"?>
<!DOCTYPE svg PUBLIC "-//W3C//DTD SVG 1.1//EN"
 "http://www.w3.org/Graphics/SVG/1.1/DTD/svg11.dtd">
<!-- Generated by graphviz version 12.1.2 (20240928.0832)
 -->
<!-- Title: alert_logs Pages: 1 -->
<svg width="508pt" height="818pt"
 viewBox="0.00 0.00 507.59 817.60" xmlns="http://www.w3.org/2000/svg" xmlns:xlink="http://www.w3.org/1999/xlink">
<g id="graph0" class="graph" transform="scale(1 1) rotate(0) translate(4 813.6)">
<title>alert_logs</title>
<polygon fill="white" stroke="none" points="-4,4 -4,-813.6 503.59,-813.6 503.59,4 -4,4"/>
<!-- alert_logs -->
<g id="node1" class="node">
<title>alert_logs</title>
<polygon fill="#efefef" stroke="none" points="48.96,-727.8 48.96,-763.4 258.43,-763.4 258.43,-727.8 48.96,-727.8"/>
<polygon fill="none" stroke="black" points="48.96,-727.8 48.96,-763.4 258.43,-763.4 258.43,-727.8 48.96,-727.8"/>
<text text-anchor="start" x="55.96" y="-741.2" font-family="Arial Bold" font-size="18.00">alert_logs</text>
<text text-anchor="start" x="126.94" y="-741.2" font-family="Arial" font-size="14.00">    </text>
<text text-anchor="start" x="158.06" y="-741.2" font-family="Arial" font-size="14.00" fill="#666666">[BASE TABLE]</text>
<polygon fill="none" stroke="black" points="48.96,-697 48.96,-727.8 258.43,-727.8 258.43,-697 48.96,-697"/>
<text text-anchor="start" x="55.96" y="-709.2" font-family="Arial" font-size="14.00">id </text>
<text text-anchor="start" x="70.75" y="-709.2" font-family="Arial" font-size="14.00" fill="#666666">[bigint unsigned]</text>
<polygon fill="none" stroke="black" points="48.96,-666.2 48.96,-697 258.43,-697 258.43,-666.2 48.96,-666.2"/>
<text text-anchor="start" x="55.96" y="-678.4" font-family="Arial" font-size="14.00">alert_id </text>
<text text-anchor="start" x="105.77" y="-678.4" font-family="Arial" font-size="14.00" fill="#666666">[bigint unsigned]</text>
<polygon fill="none" stroke="black" points="48.96,-635.4 48.96,-666.2 258.43,-666.2 258.43,-635.4 48.96,-635.4"/>
<text text-anchor="start" x="55.96" y="-647.6" font-family="Arial" font-size="14.00">user_id </text>
<text text-anchor="start" x="105.77" y="-647.6" font-family="Arial" font-size="14.00" fill="#666666">[bigint unsigned]</text>
<polygon fill="none" stroke="black" points="48.96,-604.6 48.96,-635.4 258.43,-635.4 258.43,-604.6 48.96,-604.6"/>
<text text-anchor="start" x="55.96" y="-616.8" font-family="Arial" font-size="14.00">message </text>
<text text-anchor="start" x="116.66" y="-616.8" font-family="Arial" font-size="14.00" fill="#666666">[varchar(255)]</text>
<polygon fill="none" stroke="black" points="48.96,-573.8 48.96,-604.6 258.43,-604.6 258.43,-573.8 48.96,-573.8"/>
<text text-anchor="start" x="55.96" y="-586" font-family="Arial" font-size="14.00">triggered_at </text>
<text text-anchor="start" x="134.57" y="-586" font-family="Arial" font-size="14.00" fill="#666666">[datetime]</text>
<polygon fill="none" stroke="black" stroke-width="3" points="47.46,-572.3 47.46,-764.9 259.93,-764.9 259.93,-572.3 47.46,-572.3"/>
</g>
<!-- alerts -->
<g id="node2" class="node">
<title>alerts</title>
<polygon fill="#efefef" stroke="none" points="43.2,-412.8 43.2,-448.4 264.19,-448.4 264.19,-412.8 43.2,-412.8"/>
<polygon fill="none" stroke="black" points="43.2,-412.8 43.2,-448.4 264.19,-448.4 264.19,-412.8 43.2,-412.8"/>
<text text-anchor="start" x="71.96" y="-426.2" font-family="Arial Bold" font-size="18.00">alerts</text>
<text text-anchor="start" x="110.94" y="-426.2" font-family="Arial" font-size="14.00">    </text>
<text text-anchor="start" x="142.06" y="-426.2" font-family="Arial" font-size="14.00" fill="#666666">[BASE TABLE]</text>
<polygon fill="none" stroke="black" points="43.2,-382 43.2,-412.8 264.19,-412.8 264.19,-382 43.2,-382"/>
<text text-anchor="start" x="50.2" y="-394.2" font-family="Arial" font-size="14.00">id </text>
<text text-anchor="start" x="64.99" y="-394.2" font-family="Arial" font-size="14.00" fill="#666666">[bigint unsigned]</text>
<polygon fill="none" stroke="black" points="43.2,-351.2 43.2,-382 264.19,-382 264.19,-351.2 43.2,-351.2"/>
<text text-anchor="start" x="50.2" y="-363.4" font-family="Arial" font-size="14.00">user_id </text>
<text text-anchor="start" x="100.01" y="-363.4" font-family="Arial" font-size="14.00" fill="#666666">[bigint unsigned]</text>
<polygon fill="none" stroke="black" points="43.2,-320.4 43.2,-351.2 264.19,-351.2 264.19,-320.4 43.2,-320.4"/>
<text text-anchor="start" x="50.2" y="-332.6" font-family="Arial" font-size="14.00">type </text>
<text text-anchor="start" x="80.55" y="-332.6" font-family="Arial" font-size="14.00" fill="#666666">[varchar(30)]</text>
<polygon fill="none" stroke="black" points="43.2,-289.6 43.2,-320.4 264.19,-320.4 264.19,-289.6 43.2,-289.6"/>
<text text-anchor="start" x="50.2" y="-301.8" font-family="Arial" font-size="14.00">symbol </text>
<text text-anchor="start" x="98.43" y="-301.8" font-family="Arial" font-size="14.00" fill="#666666">[varchar(20)]</text>
<polygon fill="none" stroke="black" points="43.2,-258.8 43.2,-289.6 264.19,-289.6 264.19,-258.8 43.2,-258.8"/>
<text text-anchor="start" x="50.2" y="-271" font-family="Arial" font-size="14.00">price_threshold </text>
<text text-anchor="start" x="149.81" y="-271" font-family="Arial" font-size="14.00" fill="#666666">[decimal(12,2)]</text>
<polygon fill="none" stroke="black" points="43.2,-228 43.2,-258.8 264.19,-258.8 264.19,-228 43.2,-228"/>
<text text-anchor="start" x="50.2" y="-240.2" font-family="Arial" font-size="14.00">price_direction </text>
<text text-anchor="start" x="145.14" y="-240.2" font-family="Arial" font-size="14.00" fill="#666666">[varchar(10)]</text>
<polygon fill="none" stroke="black" points="43.2,-197.2 43.2,-228 264.19,-228 264.19,-197.2 43.2,-197.2"/>
<text text-anchor="start" x="50.2" y="-209.4" font-family="Arial" font-size="14.00">volume_threshold </text>
<text text-anchor="start" x="164.6" y="-209.4" font-family="Arial" font-size="14.00" fill="#666666">[decimal(14,2)]</text>
<polygon fill="none" stroke="black" points="43.2,-166.4 43.2,-197.2 264.19,-197.2 264.19,-166.4 43.2,-166.4"/>
<text text-anchor="start" x="50.2" y="-178.6" font-family="Arial" font-size="14.00">volume_window </text>
<text text-anchor="start" x="153.7" y="-178.6" font-family="Arial" font-size="14.00" fill="#666666">[int]</text>
<polygon fill="none" stroke="black" points="43.2,-135.6 43.2,-166.4 264.19,-166.4 264.19,-135.6 43.2,-135.6"/>
<text text-anchor="start" x="50.2" y="-147.8" font-family="Arial" font-size="14.00">is_active </text>
<text text-anchor="start" x="108.56" y="-147.8" font-family="Arial" font-size="14.00" fill="#666666">[tinyint]</text>
<polygon fill="none" stroke="black" points="43.2,-104.8 43.2,-135.6 264.19,-135.6 264.19,-104.8 43.2,-104.8"/>
<text text-anchor="start" x="50.2" y="-117" font-family="Arial" font-size="14.00">last_triggered_at </text>
<text text-anchor="start" x="158.38" y="-117" font-family="Arial" font-size="14.00" fill="#666666">[datetime]</text>
<polygon fill="none" stroke="black" points="43.2,-74 43.2,-104.8 264.19,-104.8 264.19,-74 43.2,-74"/>
<text text-anchor="start" x="50.2" y="-86.2" font-family="Arial" font-size="14.00">created_at </text>
<text text-anchor="start" x="120.25" y="-86.2" font-family="Arial" font-size="14.00" fill="#666666">[datetime]</text>
<polygon fill="none" stroke="black" points="43.2,-43.2 43.2,-74 264.19,-74 264.19,-43.2 43.2,-43.2"/>
<text text-anchor="start" x="50.2" y="-55.4" font-family="Arial" font-size="14.00">updated_at </text>
<text text-anchor="start" x="124.16" y="-55.4" font-family="Arial" font-size="14.00" fill="#666666">[datetime]</text>
</g>
<!-- alert_logs&#45;&gt;alerts -->
<g id="edge1" class="edge">
<title>alert_logs:alert_id&#45;&gt;alerts:id</title>
<path fill="none" stroke="black" d="M269.28,-679.14C323.02,-651.37 324.91,-397.4 265.19,-397.4"/>
<polygon fill="black" stroke="black" points="269.46,-679.1 258.67,-677.15 264.28,-680.39 260.08,-681.44 260.08,-681.44 260.08,-681.44 264.28,-680.39 260.84,-685.89 269.46,-679.1"/>
<text text-anchor="start" x="266.43" y="-691.6" font-family="Arial" font-size="10.00">FOREIGN KEY (alert_id) REFERENCES alerts (id)</text>
</g>
</g>
</svg>
