<?xml version="1.0" encoding="UTF-8" standalone="no"?>
<!DOCTYPE svg PUBLIC "-//W3C//DTD SVG 1.1//EN"
 "http://www.w3.org/Graphics/SVG/1.1/DTD/svg11.dtd">
<!-- Generated by graphviz version 12.1.2 (20240928.0832)
 -->
<!-- Title: cache Pages: 1 -->
<svg width="280pt" height="228pt"
 viewBox="0.00 0.00 279.85 228.40" xmlns="http://www.w3.org/2000/svg" xmlns:xlink="http://www.w3.org/1999/xlink">
<g id="graph0" class="graph" transform="scale(1 1) rotate(0) translate(4 224.4)">
<title>cache</title>
<polygon fill="white" stroke="none" points="-4,4 -4,-224.4 275.85,-224.4 275.85,4 -4,4"/>
<!-- cache -->
<g id="node1" class="node">
<title>cache</title>
<polygon fill="#efefef" stroke="none" points="46.2,-138.6 46.2,-174.2 225.65,-174.2 225.65,-138.6 46.2,-138.6"/>
<polygon fill="none" stroke="black" points="46.2,-138.6 46.2,-174.2 225.65,-174.2 225.65,-138.6 46.2,-138.6"/>
<text text-anchor="start" x="53.2" y="-152" font-family="Arial Bold" font-size="18.00">cache</text>
<text text-anchor="start" x="94.16" y="-152" font-family="Arial" font-size="14.00">    </text>
<text text-anchor="start" x="125.27" y="-152" font-family="Arial" font-size="14.00" fill="#666666">[BASE TABLE]</text>
<polygon fill="none" stroke="black" points="46.2,-107.8 46.2,-138.6 225.65,-138.6 225.65,-107.8 46.2,-107.8"/>
<text text-anchor="start" x="53.2" y="-120" font-family="Arial" font-size="14.00">key </text>
<text text-anchor="start" x="78.88" y="-120" font-family="Arial" font-size="14.00" fill="#666666">[varchar(255)]</text>
<polygon fill="none" stroke="black" points="46.2,-77 46.2,-107.8 225.65,-107.8 225.65,-77 46.2,-77"/>
<text text-anchor="start" x="53.2" y="-89.2" font-family="Arial" font-size="14.00">value </text>
<text text-anchor="start" x="90.56" y="-89.2" font-family="Arial" font-size="14.00" fill="#666666">[mediumtext]</text>
<polygon fill="none" stroke="black" points="46.2,-46.2 46.2,-77 225.65,-77 225.65,-46.2 46.2,-46.2"/>
<text text-anchor="start" x="53.2" y="-58.4" font-family="Arial" font-size="14.00">expiration </text>
<text text-anchor="start" x="117.79" y="-58.4" font-family="Arial" font-size="14.00" fill="#666666">[int]</text>
<polygon fill="none" stroke="black" stroke-width="3" points="44.7,-44.7 44.7,-175.7 227.15,-175.7 227.15,-44.7 44.7,-44.7"/>
</g>
</g>
</svg>
