<?xml version="1.0" encoding="UTF-8" standalone="no"?>
<!DOCTYPE svg PUBLIC "-//W3C//DTD SVG 1.1//EN"
 "http://www.w3.org/Graphics/SVG/1.1/DTD/svg11.dtd">
<!-- Generated by graphviz version 12.1.2 (20240928.0832)
 -->
<!-- Title: cache_locks Pages: 1 -->
<svg width="327pt" height="228pt"
 viewBox="0.00 0.00 326.84 228.40" xmlns="http://www.w3.org/2000/svg" xmlns:xlink="http://www.w3.org/1999/xlink">
<g id="graph0" class="graph" transform="scale(1 1) rotate(0) translate(4 224.4)">
<title>cache_locks</title>
<polygon fill="white" stroke="none" points="-4,4 -4,-224.4 322.84,-224.4 322.84,4 -4,4"/>
<!-- cache_locks -->
<g id="node1" class="node">
<title>cache_locks</title>
<polygon fill="#efefef" stroke="none" points="46.2,-138.6 46.2,-174.2 272.64,-174.2 272.64,-138.6 46.2,-138.6"/>
<polygon fill="none" stroke="black" points="46.2,-138.6 46.2,-174.2 272.64,-174.2 272.64,-138.6 46.2,-138.6"/>
<text text-anchor="start" x="53.2" y="-152" font-family="Arial Bold" font-size="18.00">cache_locks</text>
<text text-anchor="start" x="141.15" y="-152" font-family="Arial" font-size="14.00">    </text>
<text text-anchor="start" x="172.27" y="-152" font-family="Arial" font-size="14.00" fill="#666666">[BASE TABLE]</text>
<polygon fill="none" stroke="black" points="46.2,-107.8 46.2,-138.6 272.64,-138.6 272.64,-107.8 46.2,-107.8"/>
<text text-anchor="start" x="53.2" y="-120" font-family="Arial" font-size="14.00">key </text>
<text text-anchor="start" x="78.88" y="-120" font-family="Arial" font-size="14.00" fill="#666666">[varchar(255)]</text>
<polygon fill="none" stroke="black" points="46.2,-77 46.2,-107.8 272.64,-107.8 272.64,-77 46.2,-77"/>
<text text-anchor="start" x="53.2" y="-89.2" font-family="Arial" font-size="14.00">owner </text>
<text text-anchor="start" x="95.22" y="-89.2" font-family="Arial" font-size="14.00" fill="#666666">[varchar(255)]</text>
<polygon fill="none" stroke="black" points="46.2,-46.2 46.2,-77 272.64,-77 272.64,-46.2 46.2,-46.2"/>
<text text-anchor="start" x="53.2" y="-58.4" font-family="Arial" font-size="14.00">expiration </text>
<text text-anchor="start" x="117.79" y="-58.4" font-family="Arial" font-size="14.00" fill="#666666">[int]</text>
<polygon fill="none" stroke="black" stroke-width="3" points="44.7,-44.7 44.7,-175.7 274.14,-175.7 274.14,-44.7 44.7,-44.7"/>
</g>
</g>
</svg>
