<?xml version="1.0" encoding="UTF-8" standalone="no"?>
<!DOCTYPE svg PUBLIC "-//W3C//DTD SVG 1.1//EN"
 "http://www.w3.org/Graphics/SVG/1.1/DTD/svg11.dtd">
<!-- Generated by graphviz version 12.1.2 (20240928.0832)
 -->
<!-- Title: contact_replies Pages: 1 -->
<svg width="779pt" height="725pt"
 viewBox="0.00 0.00 778.90 725.20" xmlns="http://www.w3.org/2000/svg" xmlns:xlink="http://www.w3.org/1999/xlink">
<g id="graph0" class="graph" transform="scale(1 1) rotate(0) translate(4 721.2)">
<title>contact_replies</title>
<polygon fill="white" stroke="none" points="-4,4 -4,-721.2 774.9,-721.2 774.9,4 -4,4"/>
<!-- contact_replies -->
<g id="node1" class="node">
<title>contact_replies</title>
<polygon fill="#efefef" stroke="none" points="266.73,-635.4 266.73,-671 514.17,-671 514.17,-635.4 266.73,-635.4"/>
<polygon fill="none" stroke="black" points="266.73,-635.4 266.73,-671 514.17,-671 514.17,-635.4 266.73,-635.4"/>
<text text-anchor="start" x="273.73" y="-648.8" font-family="Arial Bold" font-size="18.00">contact_replies</text>
<text text-anchor="start" x="382.68" y="-648.8" font-family="Arial" font-size="14.00">    </text>
<text text-anchor="start" x="413.8" y="-648.8" font-family="Arial" font-size="14.00" fill="#666666">[BASE TABLE]</text>
<polygon fill="none" stroke="black" points="266.73,-604.6 266.73,-635.4 514.17,-635.4 514.17,-604.6 266.73,-604.6"/>
<text text-anchor="start" x="273.73" y="-616.8" font-family="Arial" font-size="14.00">id </text>
<text text-anchor="start" x="288.52" y="-616.8" font-family="Arial" font-size="14.00" fill="#666666">[bigint unsigned]</text>
<polygon fill="none" stroke="black" points="266.73,-573.8 266.73,-604.6 514.17,-604.6 514.17,-573.8 266.73,-573.8"/>
<text text-anchor="start" x="273.73" y="-586" font-family="Arial" font-size="14.00">contact_id </text>
<text text-anchor="start" x="341.44" y="-586" font-family="Arial" font-size="14.00" fill="#666666">[bigint unsigned]</text>
<polygon fill="none" stroke="black" points="266.73,-543 266.73,-573.8 514.17,-573.8 514.17,-543 266.73,-543"/>
<text text-anchor="start" x="273.73" y="-555.2" font-family="Arial" font-size="14.00">admin_id </text>
<text text-anchor="start" x="334.44" y="-555.2" font-family="Arial" font-size="14.00" fill="#666666">[bigint unsigned]</text>
<polygon fill="none" stroke="black" points="266.73,-512.2 266.73,-543 514.17,-543 514.17,-512.2 266.73,-512.2"/>
<text text-anchor="start" x="273.73" y="-524.4" font-family="Arial" font-size="14.00">body </text>
<text text-anchor="start" x="307.98" y="-524.4" font-family="Arial" font-size="14.00" fill="#666666">[varchar(1000)]</text>
<polygon fill="none" stroke="black" points="266.73,-481.4 266.73,-512.2 514.17,-512.2 514.17,-481.4 266.73,-481.4"/>
<text text-anchor="start" x="273.73" y="-493.6" font-family="Arial" font-size="14.00">created_at </text>
<text text-anchor="start" x="343.78" y="-493.6" font-family="Arial" font-size="14.00" fill="#666666">[datetime]</text>
<polygon fill="none" stroke="black" points="266.73,-450.6 266.73,-481.4 514.17,-481.4 514.17,-450.6 266.73,-450.6"/>
<text text-anchor="start" x="273.73" y="-462.8" font-family="Arial" font-size="14.00">updated_at </text>
<text text-anchor="start" x="347.69" y="-462.8" font-family="Arial" font-size="14.00" fill="#666666">[datetime]</text>
<polygon fill="none" stroke="black" stroke-width="3" points="265.23,-449.1 265.23,-672.5 515.67,-672.5 515.67,-449.1 265.23,-449.1"/>
</g>
<!-- contacts -->
<g id="node2" class="node">
<title>contacts</title>
<polygon fill="#efefef" stroke="none" points="137.72,-289.6 137.72,-325.2 335.18,-325.2 335.18,-289.6 137.72,-289.6"/>
<polygon fill="none" stroke="black" points="137.72,-289.6 137.72,-325.2 335.18,-325.2 335.18,-289.6 137.72,-289.6"/>
<text text-anchor="start" x="144.72" y="-303" font-family="Arial Bold" font-size="18.00">contacts</text>
<text text-anchor="start" x="203.7" y="-303" font-family="Arial" font-size="14.00">    </text>
<text text-anchor="start" x="234.81" y="-303" font-family="Arial" font-size="14.00" fill="#666666">[BASE TABLE]</text>
<polygon fill="none" stroke="black" points="137.72,-258.8 137.72,-289.6 335.18,-289.6 335.18,-258.8 137.72,-258.8"/>
<text text-anchor="start" x="144.72" y="-271" font-family="Arial" font-size="14.00">id </text>
<text text-anchor="start" x="159.51" y="-271" font-family="Arial" font-size="14.00" fill="#666666">[bigint unsigned]</text>
<polygon fill="none" stroke="black" points="137.72,-228 137.72,-258.8 335.18,-258.8 335.18,-228 137.72,-228"/>
<text text-anchor="start" x="144.72" y="-240.2" font-family="Arial" font-size="14.00">user_id </text>
<text text-anchor="start" x="194.53" y="-240.2" font-family="Arial" font-size="14.00" fill="#666666">[bigint unsigned]</text>
<polygon fill="none" stroke="black" points="137.72,-197.2 137.72,-228 335.18,-228 335.18,-197.2 137.72,-197.2"/>
<text text-anchor="start" x="144.72" y="-209.4" font-family="Arial" font-size="14.00">type </text>
<text text-anchor="start" x="175.07" y="-209.4" font-family="Arial" font-size="14.00" fill="#666666">[tinyint]</text>
<polygon fill="none" stroke="black" points="137.72,-166.4 137.72,-197.2 335.18,-197.2 335.18,-166.4 137.72,-166.4"/>
<text text-anchor="start" x="144.72" y="-178.6" font-family="Arial" font-size="14.00">title </text>
<text text-anchor="start" x="170.4" y="-178.6" font-family="Arial" font-size="14.00" fill="#666666">[varchar(100)]</text>
<polygon fill="none" stroke="black" points="137.72,-135.6 137.72,-166.4 335.18,-166.4 335.18,-135.6 137.72,-135.6"/>
<text text-anchor="start" x="144.72" y="-147.8" font-family="Arial" font-size="14.00">message </text>
<text text-anchor="start" x="205.42" y="-147.8" font-family="Arial" font-size="14.00" fill="#666666">[varchar(500)]</text>
<polygon fill="none" stroke="black" points="137.72,-104.8 137.72,-135.6 335.18,-135.6 335.18,-104.8 137.72,-104.8"/>
<text text-anchor="start" x="144.72" y="-117" font-family="Arial" font-size="14.00">image_id </text>
<text text-anchor="start" x="205.42" y="-117" font-family="Arial" font-size="14.00" fill="#666666">[bigint unsigned]</text>
<polygon fill="none" stroke="black" points="137.72,-74 137.72,-104.8 335.18,-104.8 335.18,-74 137.72,-74"/>
<text text-anchor="start" x="144.72" y="-86.2" font-family="Arial" font-size="14.00">created_at </text>
<text text-anchor="start" x="214.77" y="-86.2" font-family="Arial" font-size="14.00" fill="#666666">[datetime]</text>
<polygon fill="none" stroke="black" points="137.72,-43.2 137.72,-74 335.18,-74 335.18,-43.2 137.72,-43.2"/>
<text text-anchor="start" x="144.72" y="-55.4" font-family="Arial" font-size="14.00">updated_at </text>
<text text-anchor="start" x="218.68" y="-55.4" font-family="Arial" font-size="14.00" fill="#666666">[datetime]</text>
</g>
<!-- contact_replies&#45;&gt;contacts -->
<g id="edge1" class="edge">
<title>contact_replies:contact_id&#45;&gt;contacts:id</title>
<path fill="none" stroke="black" d="M255.4,-588.52C187.24,-578.99 226,-471.44 266.73,-404.4 284.58,-375.02 317.26,-397.73 335.18,-368.4 357.02,-332.68 378.05,-274.2 336.18,-274.2"/>
<polygon fill="black" stroke="black" points="255.42,-588.52 265.1,-593.67 260.74,-588.87 265.07,-589.16 265.07,-589.16 265.07,-589.16 260.74,-588.87 265.69,-584.69 255.42,-588.52"/>
<text text-anchor="start" x="7" y="-599.2" font-family="Arial" font-size="10.00">FOREIGN KEY (contact_id) REFERENCES contacts (id)</text>
</g>
<!-- admins -->
<g id="node3" class="node">
<title>admins</title>
<polygon fill="#efefef" stroke="none" points="440.02,-289.6 440.02,-325.2 650.88,-325.2 650.88,-289.6 440.02,-289.6"/>
<polygon fill="none" stroke="black" points="440.02,-289.6 440.02,-325.2 650.88,-325.2 650.88,-289.6 440.02,-289.6"/>
<text text-anchor="start" x="457.21" y="-303" font-family="Arial Bold" font-size="18.00">admins</text>
<text text-anchor="start" x="509.21" y="-303" font-family="Arial" font-size="14.00">    </text>
<text text-anchor="start" x="540.32" y="-303" font-family="Arial" font-size="14.00" fill="#666666">[BASE TABLE]</text>
<polygon fill="none" stroke="black" points="440.02,-258.8 440.02,-289.6 650.88,-289.6 650.88,-258.8 440.02,-258.8"/>
<text text-anchor="start" x="447.02" y="-271" font-family="Arial" font-size="14.00">id </text>
<text text-anchor="start" x="461.81" y="-271" font-family="Arial" font-size="14.00" fill="#666666">[bigint unsigned]</text>
<polygon fill="none" stroke="black" points="440.02,-228 440.02,-258.8 650.88,-258.8 650.88,-228 440.02,-228"/>
<text text-anchor="start" x="447.02" y="-240.2" font-family="Arial" font-size="14.00">name </text>
<text text-anchor="start" x="485.93" y="-240.2" font-family="Arial" font-size="14.00" fill="#666666">[varchar(255)]</text>
<polygon fill="none" stroke="black" points="440.02,-197.2 440.02,-228 650.88,-228 650.88,-197.2 440.02,-197.2"/>
<text text-anchor="start" x="447.02" y="-209.4" font-family="Arial" font-size="14.00">email </text>
<text text-anchor="start" x="484.37" y="-209.4" font-family="Arial" font-size="14.00" fill="#666666">[varchar(64)]</text>
<polygon fill="none" stroke="black" points="440.02,-166.4 440.02,-197.2 650.88,-197.2 650.88,-166.4 440.02,-166.4"/>
<text text-anchor="start" x="447.02" y="-178.6" font-family="Arial" font-size="14.00">password </text>
<text text-anchor="start" x="510.83" y="-178.6" font-family="Arial" font-size="14.00" fill="#666666">[varchar(255)]</text>
<polygon fill="none" stroke="black" points="440.02,-135.6 440.02,-166.4 650.88,-166.4 650.88,-135.6 440.02,-135.6"/>
<text text-anchor="start" x="447.02" y="-147.8" font-family="Arial" font-size="14.00">role </text>
<text text-anchor="start" x="474.26" y="-147.8" font-family="Arial" font-size="14.00" fill="#666666">[varchar(255)]</text>
<polygon fill="none" stroke="black" points="440.02,-104.8 440.02,-135.6 650.88,-135.6 650.88,-104.8 440.02,-104.8"/>
<text text-anchor="start" x="447.02" y="-117" font-family="Arial" font-size="14.00">remember_token </text>
<text text-anchor="start" x="556.74" y="-117" font-family="Arial" font-size="14.00" fill="#666666">[varchar(100)]</text>
<polygon fill="none" stroke="black" points="440.02,-74 440.02,-104.8 650.88,-104.8 650.88,-74 440.02,-74"/>
<text text-anchor="start" x="447.02" y="-86.2" font-family="Arial" font-size="14.00">created_at </text>
<text text-anchor="start" x="517.07" y="-86.2" font-family="Arial" font-size="14.00" fill="#666666">[datetime]</text>
<polygon fill="none" stroke="black" points="440.02,-43.2 440.02,-74 650.88,-74 650.88,-43.2 440.02,-43.2"/>
<text text-anchor="start" x="447.02" y="-55.4" font-family="Arial" font-size="14.00">updated_at </text>
<text text-anchor="start" x="520.98" y="-55.4" font-family="Arial" font-size="14.00" fill="#666666">[datetime]</text>
</g>
<!-- contact_replies&#45;&gt;admins -->
<g id="edge2" class="edge">
<title>contact_replies:admin_id&#45;&gt;admins:id</title>
<path fill="none" stroke="black" d="M525.51,-557.56C580,-548 548.69,-459.13 514.17,-404.4 494.63,-373.41 459.63,-399.35 440.02,-368.4 417.61,-333.03 397.15,-274.2 439.02,-274.2"/>
<polygon fill="black" stroke="black" points="525.47,-557.56 515.14,-553.89 520.16,-557.99 515.84,-558.35 515.84,-558.35 515.84,-558.35 520.16,-557.99 515.87,-562.86 525.47,-557.56"/>
<text text-anchor="start" x="522.17" y="-568.4" font-family="Arial" font-size="10.00">FOREIGN KEY (admin_id) REFERENCES admins (id)</text>
</g>
</g>
</svg>
