<?xml version="1.0" encoding="UTF-8" standalone="no"?>
<!DOCTYPE svg PUBLIC "-//W3C//DTD SVG 1.1//EN"
 "http://www.w3.org/Graphics/SVG/1.1/DTD/svg11.dtd">
<!-- Generated by graphviz version 12.1.2 (20240928.0832)
 -->
<!-- Title: contacts Pages: 1 -->
<svg width="738pt" height="1376pt"
 viewBox="0.00 0.00 738.34 1376.00" xmlns="http://www.w3.org/2000/svg" xmlns:xlink="http://www.w3.org/1999/xlink">
<g id="graph0" class="graph" transform="scale(1 1) rotate(0) translate(4 1372)">
<title>contacts</title>
<polygon fill="white" stroke="none" points="-4,4 -4,-1372 734.34,-1372 734.34,4 -4,4"/>
<!-- contacts -->
<g id="node1" class="node">
<title>contacts</title>
<polygon fill="#efefef" stroke="none" points="241.16,-943.4 241.16,-979 438.62,-979 438.62,-943.4 241.16,-943.4"/>
<polygon fill="none" stroke="black" points="241.16,-943.4 241.16,-979 438.62,-979 438.62,-943.4 241.16,-943.4"/>
<text text-anchor="start" x="248.16" y="-956.8" font-family="Arial Bold" font-size="18.00">contacts</text>
<text text-anchor="start" x="307.13" y="-956.8" font-family="Arial" font-size="14.00">    </text>
<text text-anchor="start" x="338.25" y="-956.8" font-family="Arial" font-size="14.00" fill="#666666">[BASE TABLE]</text>
<polygon fill="none" stroke="black" points="241.16,-912.6 241.16,-943.4 438.62,-943.4 438.62,-912.6 241.16,-912.6"/>
<text text-anchor="start" x="248.16" y="-924.8" font-family="Arial" font-size="14.00">id </text>
<text text-anchor="start" x="262.94" y="-924.8" font-family="Arial" font-size="14.00" fill="#666666">[bigint unsigned]</text>
<polygon fill="none" stroke="black" points="241.16,-881.8 241.16,-912.6 438.62,-912.6 438.62,-881.8 241.16,-881.8"/>
<text text-anchor="start" x="248.16" y="-894" font-family="Arial" font-size="14.00">user_id </text>
<text text-anchor="start" x="297.96" y="-894" font-family="Arial" font-size="14.00" fill="#666666">[bigint unsigned]</text>
<polygon fill="none" stroke="black" points="241.16,-851 241.16,-881.8 438.62,-881.8 438.62,-851 241.16,-851"/>
<text text-anchor="start" x="248.16" y="-863.2" font-family="Arial" font-size="14.00">type </text>
<text text-anchor="start" x="278.51" y="-863.2" font-family="Arial" font-size="14.00" fill="#666666">[tinyint]</text>
<polygon fill="none" stroke="black" points="241.16,-820.2 241.16,-851 438.62,-851 438.62,-820.2 241.16,-820.2"/>
<text text-anchor="start" x="248.16" y="-832.4" font-family="Arial" font-size="14.00">title </text>
<text text-anchor="start" x="273.83" y="-832.4" font-family="Arial" font-size="14.00" fill="#666666">[varchar(100)]</text>
<polygon fill="none" stroke="black" points="241.16,-789.4 241.16,-820.2 438.62,-820.2 438.62,-789.4 241.16,-789.4"/>
<text text-anchor="start" x="248.16" y="-801.6" font-family="Arial" font-size="14.00">message </text>
<text text-anchor="start" x="308.85" y="-801.6" font-family="Arial" font-size="14.00" fill="#666666">[varchar(500)]</text>
<polygon fill="none" stroke="black" points="241.16,-758.6 241.16,-789.4 438.62,-789.4 438.62,-758.6 241.16,-758.6"/>
<text text-anchor="start" x="248.16" y="-770.8" font-family="Arial" font-size="14.00">image_id </text>
<text text-anchor="start" x="308.86" y="-770.8" font-family="Arial" font-size="14.00" fill="#666666">[bigint unsigned]</text>
<polygon fill="none" stroke="black" points="241.16,-727.8 241.16,-758.6 438.62,-758.6 438.62,-727.8 241.16,-727.8"/>
<text text-anchor="start" x="248.16" y="-740" font-family="Arial" font-size="14.00">created_at </text>
<text text-anchor="start" x="318.21" y="-740" font-family="Arial" font-size="14.00" fill="#666666">[datetime]</text>
<polygon fill="none" stroke="black" points="241.16,-697 241.16,-727.8 438.62,-727.8 438.62,-697 241.16,-697"/>
<text text-anchor="start" x="248.16" y="-709.2" font-family="Arial" font-size="14.00">updated_at </text>
<text text-anchor="start" x="322.12" y="-709.2" font-family="Arial" font-size="14.00" fill="#666666">[datetime]</text>
<polygon fill="none" stroke="black" stroke-width="3" points="239.66,-695.5 239.66,-980.5 440.12,-980.5 440.12,-695.5 239.66,-695.5"/>
</g>
<!-- users -->
<g id="node3" class="node">
<title>users</title>
<polygon fill="#efefef" stroke="none" points="73.21,-536 73.21,-571.6 296.57,-571.6 296.57,-536 73.21,-536"/>
<polygon fill="none" stroke="black" points="73.21,-536 73.21,-571.6 296.57,-571.6 296.57,-536 73.21,-536"/>
<text text-anchor="start" x="104.15" y="-549.4" font-family="Arial Bold" font-size="18.00">users</text>
<text text-anchor="start" x="141.14" y="-549.4" font-family="Arial" font-size="14.00">    </text>
<text text-anchor="start" x="172.26" y="-549.4" font-family="Arial" font-size="14.00" fill="#666666">[BASE TABLE]</text>
<polygon fill="none" stroke="black" points="73.21,-505.2 73.21,-536 296.57,-536 296.57,-505.2 73.21,-505.2"/>
<text text-anchor="start" x="80.21" y="-517.4" font-family="Arial" font-size="14.00">id </text>
<text text-anchor="start" x="94.99" y="-517.4" font-family="Arial" font-size="14.00" fill="#666666">[bigint unsigned]</text>
<polygon fill="none" stroke="black" points="73.21,-474.4 73.21,-505.2 296.57,-505.2 296.57,-474.4 73.21,-474.4"/>
<text text-anchor="start" x="80.21" y="-486.6" font-family="Arial" font-size="14.00">name </text>
<text text-anchor="start" x="119.12" y="-486.6" font-family="Arial" font-size="14.00" fill="#666666">[varchar(255)]</text>
<polygon fill="none" stroke="black" points="73.21,-443.6 73.21,-474.4 296.57,-474.4 296.57,-443.6 73.21,-443.6"/>
<text text-anchor="start" x="80.21" y="-455.8" font-family="Arial" font-size="14.00">email </text>
<text text-anchor="start" x="117.55" y="-455.8" font-family="Arial" font-size="14.00" fill="#666666">[varchar(255)]</text>
<polygon fill="none" stroke="black" points="73.21,-412.8 73.21,-443.6 296.57,-443.6 296.57,-412.8 73.21,-412.8"/>
<text text-anchor="start" x="80.21" y="-425" font-family="Arial" font-size="14.00">stripe_customer_id </text>
<text text-anchor="start" x="202.37" y="-425" font-family="Arial" font-size="14.00" fill="#666666">[varchar(255)]</text>
<polygon fill="none" stroke="black" points="73.21,-382 73.21,-412.8 296.57,-412.8 296.57,-382 73.21,-382"/>
<text text-anchor="start" x="80.21" y="-394.2" font-family="Arial" font-size="14.00">plan </text>
<text text-anchor="start" x="110.57" y="-394.2" font-family="Arial" font-size="14.00" fill="#666666">[varchar(20)]</text>
<polygon fill="none" stroke="black" points="73.21,-351.2 73.21,-382 296.57,-382 296.57,-351.2 73.21,-351.2"/>
<text text-anchor="start" x="80.21" y="-363.4" font-family="Arial" font-size="14.00">plan_expires_at </text>
<text text-anchor="start" x="182.94" y="-363.4" font-family="Arial" font-size="14.00" fill="#666666">[datetime]</text>
<polygon fill="none" stroke="black" points="73.21,-320.4 73.21,-351.2 296.57,-351.2 296.57,-320.4 73.21,-320.4"/>
<text text-anchor="start" x="80.21" y="-332.6" font-family="Arial" font-size="14.00">email_verified_at </text>
<text text-anchor="start" x="189.93" y="-332.6" font-family="Arial" font-size="14.00" fill="#666666">[datetime]</text>
<polygon fill="none" stroke="black" points="73.21,-289.6 73.21,-320.4 296.57,-320.4 296.57,-289.6 73.21,-289.6"/>
<text text-anchor="start" x="80.21" y="-301.8" font-family="Arial" font-size="14.00">password </text>
<text text-anchor="start" x="144.01" y="-301.8" font-family="Arial" font-size="14.00" fill="#666666">[varchar(255)]</text>
<polygon fill="none" stroke="black" points="73.21,-258.8 73.21,-289.6 296.57,-289.6 296.57,-258.8 73.21,-258.8"/>
<text text-anchor="start" x="80.21" y="-271" font-family="Arial" font-size="14.00">avatar_image_id </text>
<text text-anchor="start" x="187.61" y="-271" font-family="Arial" font-size="14.00" fill="#666666">[bigint unsigned]</text>
<polygon fill="none" stroke="black" points="73.21,-228 73.21,-258.8 296.57,-258.8 296.57,-228 73.21,-228"/>
<text text-anchor="start" x="80.21" y="-240.2" font-family="Arial" font-size="14.00">google_id </text>
<text text-anchor="start" x="144.82" y="-240.2" font-family="Arial" font-size="14.00" fill="#666666">[varchar(255)]</text>
<polygon fill="none" stroke="black" points="73.21,-197.2 73.21,-228 296.57,-228 296.57,-197.2 73.21,-197.2"/>
<text text-anchor="start" x="80.21" y="-209.4" font-family="Arial" font-size="14.00">avatar_url </text>
<text text-anchor="start" x="146.35" y="-209.4" font-family="Arial" font-size="14.00" fill="#666666">[varchar(255)]</text>
<polygon fill="none" stroke="black" points="73.21,-166.4 73.21,-197.2 296.57,-197.2 296.57,-166.4 73.21,-166.4"/>
<text text-anchor="start" x="80.21" y="-178.6" font-family="Arial" font-size="14.00">status </text>
<text text-anchor="start" x="121.45" y="-178.6" font-family="Arial" font-size="14.00" fill="#666666">[tinyint]</text>
<polygon fill="none" stroke="black" points="73.21,-135.6 73.21,-166.4 296.57,-166.4 296.57,-135.6 73.21,-135.6"/>
<text text-anchor="start" x="80.21" y="-147.8" font-family="Arial" font-size="14.00">remember_token </text>
<text text-anchor="start" x="189.92" y="-147.8" font-family="Arial" font-size="14.00" fill="#666666">[varchar(100)]</text>
<polygon fill="none" stroke="black" points="73.21,-104.8 73.21,-135.6 296.57,-135.6 296.57,-104.8 73.21,-104.8"/>
<text text-anchor="start" x="80.21" y="-117" font-family="Arial" font-size="14.00">created_at </text>
<text text-anchor="start" x="150.25" y="-117" font-family="Arial" font-size="14.00" fill="#666666">[datetime]</text>
<polygon fill="none" stroke="black" points="73.21,-74 73.21,-104.8 296.57,-104.8 296.57,-74 73.21,-74"/>
<text text-anchor="start" x="80.21" y="-86.2" font-family="Arial" font-size="14.00">updated_at </text>
<text text-anchor="start" x="154.17" y="-86.2" font-family="Arial" font-size="14.00" fill="#666666">[datetime]</text>
<polygon fill="none" stroke="black" points="73.21,-43.2 73.21,-74 296.57,-74 296.57,-43.2 73.21,-43.2"/>
<text text-anchor="start" x="80.21" y="-55.4" font-family="Arial" font-size="14.00">deleted_at </text>
<text text-anchor="start" x="149.49" y="-55.4" font-family="Arial" font-size="14.00" fill="#666666">[datetime]</text>
</g>
<!-- contacts&#45;&gt;users -->
<g id="edge2" class="edge">
<title>contacts:user_id&#45;&gt;users:id</title>
<path fill="none" stroke="black" d="M229.8,-896.71C134.5,-887.28 190.46,-743.75 241.16,-650.8 255.22,-625.02 282.42,-640.54 296.57,-614.8 316.74,-578.11 339.44,-520.6 297.57,-520.6"/>
<polygon fill="black" stroke="black" points="229.83,-896.71 239.61,-901.68 235.16,-896.96 239.49,-897.17 239.49,-897.17 239.49,-897.17 235.16,-896.96 240.04,-892.69 229.83,-896.71"/>
<text text-anchor="start" x="7" y="-907.2" font-family="Arial" font-size="10.00">FOREIGN KEY (user_id) REFERENCES users (id)</text>
</g>
<!-- images -->
<g id="node4" class="node">
<title>images</title>
<polygon fill="#efefef" stroke="none" points="401.15,-366.6 401.15,-402.2 590.63,-402.2 590.63,-366.6 401.15,-366.6"/>
<polygon fill="none" stroke="black" points="401.15,-366.6 401.15,-402.2 590.63,-402.2 590.63,-366.6 401.15,-366.6"/>
<text text-anchor="start" x="408.15" y="-380" font-family="Arial Bold" font-size="18.00">images</text>
<text text-anchor="start" x="459.14" y="-380" font-family="Arial" font-size="14.00">    </text>
<text text-anchor="start" x="490.25" y="-380" font-family="Arial" font-size="14.00" fill="#666666">[BASE TABLE]</text>
<polygon fill="none" stroke="black" points="401.15,-335.8 401.15,-366.6 590.63,-366.6 590.63,-335.8 401.15,-335.8"/>
<text text-anchor="start" x="408.15" y="-348" font-family="Arial" font-size="14.00">id </text>
<text text-anchor="start" x="422.94" y="-348" font-family="Arial" font-size="14.00" fill="#666666">[bigint unsigned]</text>
<polygon fill="none" stroke="black" points="401.15,-305 401.15,-335.8 590.63,-335.8 590.63,-305 401.15,-305"/>
<text text-anchor="start" x="408.15" y="-317.2" font-family="Arial" font-size="14.00">file_name </text>
<text text-anchor="start" x="472.74" y="-317.2" font-family="Arial" font-size="14.00" fill="#666666">[varchar(200)]</text>
<polygon fill="none" stroke="black" points="401.15,-274.2 401.15,-305 590.63,-305 590.63,-274.2 401.15,-274.2"/>
<text text-anchor="start" x="408.15" y="-286.4" font-family="Arial" font-size="14.00">type </text>
<text text-anchor="start" x="438.5" y="-286.4" font-family="Arial" font-size="14.00" fill="#666666">[tinyint]</text>
<polygon fill="none" stroke="black" points="401.15,-243.4 401.15,-274.2 590.63,-274.2 590.63,-243.4 401.15,-243.4"/>
<text text-anchor="start" x="408.15" y="-255.6" font-family="Arial" font-size="14.00">created_at </text>
<text text-anchor="start" x="478.2" y="-255.6" font-family="Arial" font-size="14.00" fill="#666666">[datetime]</text>
<polygon fill="none" stroke="black" points="401.15,-212.6 401.15,-243.4 590.63,-243.4 590.63,-212.6 401.15,-212.6"/>
<text text-anchor="start" x="408.15" y="-224.8" font-family="Arial" font-size="14.00">updated_at </text>
<text text-anchor="start" x="482.11" y="-224.8" font-family="Arial" font-size="14.00" fill="#666666">[datetime]</text>
</g>
<!-- contacts&#45;&gt;images -->
<g id="edge3" class="edge">
<title>contacts:image_id&#45;&gt;images:id</title>
<path fill="none" stroke="black" d="M450,-773.52C612.29,-757.65 215.11,-351.2 400.15,-351.2"/>
<polygon fill="black" stroke="black" points="449.94,-773.52 439.75,-769.49 444.62,-773.77 440.29,-773.97 440.29,-773.97 440.29,-773.97 444.62,-773.77 440.16,-778.48 449.94,-773.52"/>
<text text-anchor="start" x="446.62" y="-784" font-family="Arial" font-size="10.00">FOREIGN KEY (image_id) REFERENCES images (id)</text>
</g>
<!-- contact_replies -->
<g id="node2" class="node">
<title>contact_replies</title>
<polygon fill="#efefef" stroke="none" points="216.17,-1289.2 216.17,-1324.8 463.61,-1324.8 463.61,-1289.2 216.17,-1289.2"/>
<polygon fill="none" stroke="black" points="216.17,-1289.2 216.17,-1324.8 463.61,-1324.8 463.61,-1289.2 216.17,-1289.2"/>
<text text-anchor="start" x="223.17" y="-1302.6" font-family="Arial Bold" font-size="18.00">contact_replies</text>
<text text-anchor="start" x="332.12" y="-1302.6" font-family="Arial" font-size="14.00">    </text>
<text text-anchor="start" x="363.24" y="-1302.6" font-family="Arial" font-size="14.00" fill="#666666">[BASE TABLE]</text>
<polygon fill="none" stroke="black" points="216.17,-1258.4 216.17,-1289.2 463.61,-1289.2 463.61,-1258.4 216.17,-1258.4"/>
<text text-anchor="start" x="223.17" y="-1270.6" font-family="Arial" font-size="14.00">id </text>
<text text-anchor="start" x="237.96" y="-1270.6" font-family="Arial" font-size="14.00" fill="#666666">[bigint unsigned]</text>
<polygon fill="none" stroke="black" points="216.17,-1227.6 216.17,-1258.4 463.61,-1258.4 463.61,-1227.6 216.17,-1227.6"/>
<text text-anchor="start" x="223.17" y="-1239.8" font-family="Arial" font-size="14.00">contact_id </text>
<text text-anchor="start" x="290.88" y="-1239.8" font-family="Arial" font-size="14.00" fill="#666666">[bigint unsigned]</text>
<polygon fill="none" stroke="black" points="216.17,-1196.8 216.17,-1227.6 463.61,-1227.6 463.61,-1196.8 216.17,-1196.8"/>
<text text-anchor="start" x="223.17" y="-1209" font-family="Arial" font-size="14.00">admin_id </text>
<text text-anchor="start" x="283.87" y="-1209" font-family="Arial" font-size="14.00" fill="#666666">[bigint unsigned]</text>
<polygon fill="none" stroke="black" points="216.17,-1166 216.17,-1196.8 463.61,-1196.8 463.61,-1166 216.17,-1166"/>
<text text-anchor="start" x="223.17" y="-1178.2" font-family="Arial" font-size="14.00">body </text>
<text text-anchor="start" x="257.42" y="-1178.2" font-family="Arial" font-size="14.00" fill="#666666">[varchar(1000)]</text>
<polygon fill="none" stroke="black" points="216.17,-1135.2 216.17,-1166 463.61,-1166 463.61,-1135.2 216.17,-1135.2"/>
<text text-anchor="start" x="223.17" y="-1147.4" font-family="Arial" font-size="14.00">created_at </text>
<text text-anchor="start" x="293.22" y="-1147.4" font-family="Arial" font-size="14.00" fill="#666666">[datetime]</text>
<polygon fill="none" stroke="black" points="216.17,-1104.4 216.17,-1135.2 463.61,-1135.2 463.61,-1104.4 216.17,-1104.4"/>
<text text-anchor="start" x="223.17" y="-1116.6" font-family="Arial" font-size="14.00">updated_at </text>
<text text-anchor="start" x="297.13" y="-1116.6" font-family="Arial" font-size="14.00" fill="#666666">[datetime]</text>
</g>
<!-- contact_replies&#45;&gt;contacts -->
<g id="edge1" class="edge">
<title>contact_replies:contact_id&#45;&gt;contacts:id</title>
<path fill="none" stroke="black" d="M474.99,-1242.4C603.7,-1227.21 576.5,-928 439.62,-928"/>
<polygon fill="black" stroke="black" points="474.93,-1242.4 464.68,-1238.49 469.6,-1242.71 465.28,-1242.96 465.28,-1242.96 465.28,-1242.96 469.6,-1242.71 465.2,-1247.47 474.93,-1242.4"/>
<text text-anchor="start" x="471.61" y="-1253" font-family="Arial" font-size="10.00">FOREIGN KEY (contact_id) REFERENCES contacts (id)</text>
</g>
</g>
</svg>
