<?xml version="1.0" encoding="UTF-8" standalone="no"?>
<!DOCTYPE svg PUBLIC "-//W3C//DTD SVG 1.1//EN"
 "http://www.w3.org/Graphics/SVG/1.1/DTD/svg11.dtd">
<!-- Generated by graphviz version 12.1.2 (20240928.0832)
 -->
<!-- Title: images Pages: 1 -->
<svg width="929pt" height="848pt"
 viewBox="0.00 0.00 929.33 848.40" xmlns="http://www.w3.org/2000/svg" xmlns:xlink="http://www.w3.org/1999/xlink">
<g id="graph0" class="graph" transform="scale(1 1) rotate(0) translate(4 844.4)">
<title>images</title>
<polygon fill="white" stroke="none" points="-4,4 -4,-844.4 925.33,-844.4 925.33,4 -4,4"/>
<!-- images -->
<g id="node1" class="node">
<title>images</title>
<polygon fill="#efefef" stroke="none" points="342.19,-200.2 342.19,-235.8 531.67,-235.8 531.67,-200.2 342.19,-200.2"/>
<polygon fill="none" stroke="black" points="342.19,-200.2 342.19,-235.8 531.67,-235.8 531.67,-200.2 342.19,-200.2"/>
<text text-anchor="start" x="349.19" y="-213.6" font-family="Arial Bold" font-size="18.00">images</text>
<text text-anchor="start" x="400.18" y="-213.6" font-family="Arial" font-size="14.00">    </text>
<text text-anchor="start" x="431.3" y="-213.6" font-family="Arial" font-size="14.00" fill="#666666">[BASE TABLE]</text>
<polygon fill="none" stroke="black" points="342.19,-169.4 342.19,-200.2 531.67,-200.2 531.67,-169.4 342.19,-169.4"/>
<text text-anchor="start" x="349.19" y="-181.6" font-family="Arial" font-size="14.00">id </text>
<text text-anchor="start" x="363.98" y="-181.6" font-family="Arial" font-size="14.00" fill="#666666">[bigint unsigned]</text>
<polygon fill="none" stroke="black" points="342.19,-138.6 342.19,-169.4 531.67,-169.4 531.67,-138.6 342.19,-138.6"/>
<text text-anchor="start" x="349.19" y="-150.8" font-family="Arial" font-size="14.00">file_name </text>
<text text-anchor="start" x="413.79" y="-150.8" font-family="Arial" font-size="14.00" fill="#666666">[varchar(200)]</text>
<polygon fill="none" stroke="black" points="342.19,-107.8 342.19,-138.6 531.67,-138.6 531.67,-107.8 342.19,-107.8"/>
<text text-anchor="start" x="349.19" y="-120" font-family="Arial" font-size="14.00">type </text>
<text text-anchor="start" x="379.55" y="-120" font-family="Arial" font-size="14.00" fill="#666666">[tinyint]</text>
<polygon fill="none" stroke="black" points="342.19,-77 342.19,-107.8 531.67,-107.8 531.67,-77 342.19,-77"/>
<text text-anchor="start" x="349.19" y="-89.2" font-family="Arial" font-size="14.00">created_at </text>
<text text-anchor="start" x="419.24" y="-89.2" font-family="Arial" font-size="14.00" fill="#666666">[datetime]</text>
<polygon fill="none" stroke="black" points="342.19,-46.2 342.19,-77 531.67,-77 531.67,-46.2 342.19,-46.2"/>
<text text-anchor="start" x="349.19" y="-58.4" font-family="Arial" font-size="14.00">updated_at </text>
<text text-anchor="start" x="423.15" y="-58.4" font-family="Arial" font-size="14.00" fill="#666666">[datetime]</text>
<polygon fill="none" stroke="black" stroke-width="3" points="340.69,-44.7 340.69,-237.3 533.17,-237.3 533.17,-44.7 340.69,-44.7"/>
</g>
<!-- contacts -->
<g id="node2" class="node">
<title>contacts</title>
<polygon fill="#efefef" stroke="none" points="43.2,-684.6 43.2,-720.2 240.66,-720.2 240.66,-684.6 43.2,-684.6"/>
<polygon fill="none" stroke="black" points="43.2,-684.6 43.2,-720.2 240.66,-720.2 240.66,-684.6 43.2,-684.6"/>
<text text-anchor="start" x="50.2" y="-698" font-family="Arial Bold" font-size="18.00">contacts</text>
<text text-anchor="start" x="109.17" y="-698" font-family="Arial" font-size="14.00">    </text>
<text text-anchor="start" x="140.29" y="-698" font-family="Arial" font-size="14.00" fill="#666666">[BASE TABLE]</text>
<polygon fill="none" stroke="black" points="43.2,-653.8 43.2,-684.6 240.66,-684.6 240.66,-653.8 43.2,-653.8"/>
<text text-anchor="start" x="50.2" y="-666" font-family="Arial" font-size="14.00">id </text>
<text text-anchor="start" x="64.99" y="-666" font-family="Arial" font-size="14.00" fill="#666666">[bigint unsigned]</text>
<polygon fill="none" stroke="black" points="43.2,-623 43.2,-653.8 240.66,-653.8 240.66,-623 43.2,-623"/>
<text text-anchor="start" x="50.2" y="-635.2" font-family="Arial" font-size="14.00">user_id </text>
<text text-anchor="start" x="100.01" y="-635.2" font-family="Arial" font-size="14.00" fill="#666666">[bigint unsigned]</text>
<polygon fill="none" stroke="black" points="43.2,-592.2 43.2,-623 240.66,-623 240.66,-592.2 43.2,-592.2"/>
<text text-anchor="start" x="50.2" y="-604.4" font-family="Arial" font-size="14.00">type </text>
<text text-anchor="start" x="80.55" y="-604.4" font-family="Arial" font-size="14.00" fill="#666666">[tinyint]</text>
<polygon fill="none" stroke="black" points="43.2,-561.4 43.2,-592.2 240.66,-592.2 240.66,-561.4 43.2,-561.4"/>
<text text-anchor="start" x="50.2" y="-573.6" font-family="Arial" font-size="14.00">title </text>
<text text-anchor="start" x="75.88" y="-573.6" font-family="Arial" font-size="14.00" fill="#666666">[varchar(100)]</text>
<polygon fill="none" stroke="black" points="43.2,-530.6 43.2,-561.4 240.66,-561.4 240.66,-530.6 43.2,-530.6"/>
<text text-anchor="start" x="50.2" y="-542.8" font-family="Arial" font-size="14.00">message </text>
<text text-anchor="start" x="110.9" y="-542.8" font-family="Arial" font-size="14.00" fill="#666666">[varchar(500)]</text>
<polygon fill="none" stroke="black" points="43.2,-499.8 43.2,-530.6 240.66,-530.6 240.66,-499.8 43.2,-499.8"/>
<text text-anchor="start" x="50.2" y="-512" font-family="Arial" font-size="14.00">image_id </text>
<text text-anchor="start" x="110.9" y="-512" font-family="Arial" font-size="14.00" fill="#666666">[bigint unsigned]</text>
<polygon fill="none" stroke="black" points="43.2,-469 43.2,-499.8 240.66,-499.8 240.66,-469 43.2,-469"/>
<text text-anchor="start" x="50.2" y="-481.2" font-family="Arial" font-size="14.00">created_at </text>
<text text-anchor="start" x="120.25" y="-481.2" font-family="Arial" font-size="14.00" fill="#666666">[datetime]</text>
<polygon fill="none" stroke="black" points="43.2,-438.2 43.2,-469 240.66,-469 240.66,-438.2 43.2,-438.2"/>
<text text-anchor="start" x="50.2" y="-450.4" font-family="Arial" font-size="14.00">updated_at </text>
<text text-anchor="start" x="124.16" y="-450.4" font-family="Arial" font-size="14.00" fill="#666666">[datetime]</text>
</g>
<!-- contacts&#45;&gt;images -->
<g id="edge1" class="edge">
<title>contacts:image_id&#45;&gt;images:id</title>
<path fill="none" stroke="black" d="M252.03,-514.65C326.95,-506.16 267.19,-400.94 292.93,-318 311.6,-257.86 278.23,-184.8 341.19,-184.8"/>
<polygon fill="black" stroke="black" points="251.98,-514.65 241.76,-510.69 246.66,-514.94 242.33,-515.16 242.33,-515.16 242.33,-515.16 246.66,-514.94 242.24,-519.68 251.98,-514.65"/>
<text text-anchor="start" x="248.66" y="-525.2" font-family="Arial" font-size="10.00">FOREIGN KEY (image_id) REFERENCES images (id)</text>
</g>
<!-- stocks -->
<g id="node3" class="node">
<title>stocks</title>
<polygon fill="#efefef" stroke="none" points="345.19,-700 345.19,-735.6 528.68,-735.6 528.68,-700 345.19,-700"/>
<polygon fill="none" stroke="black" points="345.19,-700 345.19,-735.6 528.68,-735.6 528.68,-700 345.19,-700"/>
<text text-anchor="start" x="352.19" y="-713.4" font-family="Arial Bold" font-size="18.00">stocks</text>
<text text-anchor="start" x="397.19" y="-713.4" font-family="Arial" font-size="14.00">    </text>
<text text-anchor="start" x="428.3" y="-713.4" font-family="Arial" font-size="14.00" fill="#666666">[BASE TABLE]</text>
<polygon fill="none" stroke="black" points="345.19,-669.2 345.19,-700 528.68,-700 528.68,-669.2 345.19,-669.2"/>
<text text-anchor="start" x="352.19" y="-681.4" font-family="Arial" font-size="14.00">id </text>
<text text-anchor="start" x="366.97" y="-681.4" font-family="Arial" font-size="14.00" fill="#666666">[bigint unsigned]</text>
<polygon fill="none" stroke="black" points="345.19,-638.4 345.19,-669.2 528.68,-669.2 528.68,-638.4 345.19,-638.4"/>
<text text-anchor="start" x="352.19" y="-650.6" font-family="Arial" font-size="14.00">name </text>
<text text-anchor="start" x="391.1" y="-650.6" font-family="Arial" font-size="14.00" fill="#666666">[varchar(50)]</text>
<polygon fill="none" stroke="black" points="345.19,-607.6 345.19,-638.4 528.68,-638.4 528.68,-607.6 345.19,-607.6"/>
<text text-anchor="start" x="352.19" y="-619.8" font-family="Arial" font-size="14.00">detail </text>
<text text-anchor="start" x="389.55" y="-619.8" font-family="Arial" font-size="14.00" fill="#666666">[varchar(500)]</text>
<polygon fill="none" stroke="black" points="345.19,-576.8 345.19,-607.6 528.68,-607.6 528.68,-576.8 345.19,-576.8"/>
<text text-anchor="start" x="352.19" y="-589" font-family="Arial" font-size="14.00">price </text>
<text text-anchor="start" x="386.42" y="-589" font-family="Arial" font-size="14.00" fill="#666666">[int]</text>
<polygon fill="none" stroke="black" points="345.19,-546 345.19,-576.8 528.68,-576.8 528.68,-546 345.19,-546"/>
<text text-anchor="start" x="352.19" y="-558.2" font-family="Arial" font-size="14.00">image_id </text>
<text text-anchor="start" x="412.89" y="-558.2" font-family="Arial" font-size="14.00" fill="#666666">[bigint unsigned]</text>
<polygon fill="none" stroke="black" points="345.19,-515.2 345.19,-546 528.68,-546 528.68,-515.2 345.19,-515.2"/>
<text text-anchor="start" x="352.19" y="-527.4" font-family="Arial" font-size="14.00">quantity </text>
<text text-anchor="start" x="405.11" y="-527.4" font-family="Arial" font-size="14.00" fill="#666666">[int]</text>
<polygon fill="none" stroke="black" points="345.19,-484.4 345.19,-515.2 528.68,-515.2 528.68,-484.4 345.19,-484.4"/>
<text text-anchor="start" x="352.19" y="-496.6" font-family="Arial" font-size="14.00">created_at </text>
<text text-anchor="start" x="422.24" y="-496.6" font-family="Arial" font-size="14.00" fill="#666666">[datetime]</text>
<polygon fill="none" stroke="black" points="345.19,-453.6 345.19,-484.4 528.68,-484.4 528.68,-453.6 345.19,-453.6"/>
<text text-anchor="start" x="352.19" y="-465.8" font-family="Arial" font-size="14.00">updated_at </text>
<text text-anchor="start" x="426.15" y="-465.8" font-family="Arial" font-size="14.00" fill="#666666">[datetime]</text>
<polygon fill="none" stroke="black" points="345.19,-422.8 345.19,-453.6 528.68,-453.6 528.68,-422.8 345.19,-422.8"/>
<text text-anchor="start" x="352.19" y="-435" font-family="Arial" font-size="14.00">deleted_at </text>
<text text-anchor="start" x="421.47" y="-435" font-family="Arial" font-size="14.00" fill="#666666">[datetime]</text>
</g>
<!-- stocks&#45;&gt;images -->
<g id="edge2" class="edge">
<title>stocks:image_id&#45;&gt;images:id</title>
<path fill="none" stroke="black" d="M538.14,-555.78C571.72,-508.94 571.49,-184.8 532.67,-184.8"/>
<polygon fill="black" stroke="black" points="538.29,-555.68 527.47,-557.47 533.84,-558.63 530.23,-561.03 530.23,-561.03 530.23,-561.03 533.84,-558.63 532.44,-564.96 538.29,-555.68"/>
<text text-anchor="start" x="280.95" y="-571.4" font-family="Arial" font-size="10.00">FOREIGN KEY (image_id) REFERENCES images (id)</text>
</g>
<!-- users -->
<g id="node4" class="node">
<title>users</title>
<polygon fill="#efefef" stroke="none" points="633.25,-761.6 633.25,-797.2 856.61,-797.2 856.61,-761.6 633.25,-761.6"/>
<polygon fill="none" stroke="black" points="633.25,-761.6 633.25,-797.2 856.61,-797.2 856.61,-761.6 633.25,-761.6"/>
<text text-anchor="start" x="664.19" y="-775" font-family="Arial Bold" font-size="18.00">users</text>
<text text-anchor="start" x="701.18" y="-775" font-family="Arial" font-size="14.00">    </text>
<text text-anchor="start" x="732.3" y="-775" font-family="Arial" font-size="14.00" fill="#666666">[BASE TABLE]</text>
<polygon fill="none" stroke="black" points="633.25,-730.8 633.25,-761.6 856.61,-761.6 856.61,-730.8 633.25,-730.8"/>
<text text-anchor="start" x="640.25" y="-743" font-family="Arial" font-size="14.00">id </text>
<text text-anchor="start" x="655.04" y="-743" font-family="Arial" font-size="14.00" fill="#666666">[bigint unsigned]</text>
<polygon fill="none" stroke="black" points="633.25,-700 633.25,-730.8 856.61,-730.8 856.61,-700 633.25,-700"/>
<text text-anchor="start" x="640.25" y="-712.2" font-family="Arial" font-size="14.00">name </text>
<text text-anchor="start" x="679.16" y="-712.2" font-family="Arial" font-size="14.00" fill="#666666">[varchar(255)]</text>
<polygon fill="none" stroke="black" points="633.25,-669.2 633.25,-700 856.61,-700 856.61,-669.2 633.25,-669.2"/>
<text text-anchor="start" x="640.25" y="-681.4" font-family="Arial" font-size="14.00">email </text>
<text text-anchor="start" x="677.59" y="-681.4" font-family="Arial" font-size="14.00" fill="#666666">[varchar(255)]</text>
<polygon fill="none" stroke="black" points="633.25,-638.4 633.25,-669.2 856.61,-669.2 856.61,-638.4 633.25,-638.4"/>
<text text-anchor="start" x="640.25" y="-650.6" font-family="Arial" font-size="14.00">email_verified_at </text>
<text text-anchor="start" x="749.97" y="-650.6" font-family="Arial" font-size="14.00" fill="#666666">[datetime]</text>
<polygon fill="none" stroke="black" points="633.25,-607.6 633.25,-638.4 856.61,-638.4 856.61,-607.6 633.25,-607.6"/>
<text text-anchor="start" x="640.25" y="-619.8" font-family="Arial" font-size="14.00">password </text>
<text text-anchor="start" x="704.06" y="-619.8" font-family="Arial" font-size="14.00" fill="#666666">[varchar(255)]</text>
<polygon fill="none" stroke="black" points="633.25,-576.8 633.25,-607.6 856.61,-607.6 856.61,-576.8 633.25,-576.8"/>
<text text-anchor="start" x="640.25" y="-589" font-family="Arial" font-size="14.00">avatar_image_id </text>
<text text-anchor="start" x="747.65" y="-589" font-family="Arial" font-size="14.00" fill="#666666">[bigint unsigned]</text>
<polygon fill="none" stroke="black" points="633.25,-546 633.25,-576.8 856.61,-576.8 856.61,-546 633.25,-546"/>
<text text-anchor="start" x="640.25" y="-558.2" font-family="Arial" font-size="14.00">google_id </text>
<text text-anchor="start" x="704.86" y="-558.2" font-family="Arial" font-size="14.00" fill="#666666">[varchar(255)]</text>
<polygon fill="none" stroke="black" points="633.25,-515.2 633.25,-546 856.61,-546 856.61,-515.2 633.25,-515.2"/>
<text text-anchor="start" x="640.25" y="-527.4" font-family="Arial" font-size="14.00">avatar_url </text>
<text text-anchor="start" x="706.39" y="-527.4" font-family="Arial" font-size="14.00" fill="#666666">[varchar(255)]</text>
<polygon fill="none" stroke="black" points="633.25,-484.4 633.25,-515.2 856.61,-515.2 856.61,-484.4 633.25,-484.4"/>
<text text-anchor="start" x="640.25" y="-496.6" font-family="Arial" font-size="14.00">status </text>
<text text-anchor="start" x="681.49" y="-496.6" font-family="Arial" font-size="14.00" fill="#666666">[tinyint]</text>
<polygon fill="none" stroke="black" points="633.25,-453.6 633.25,-484.4 856.61,-484.4 856.61,-453.6 633.25,-453.6"/>
<text text-anchor="start" x="640.25" y="-465.8" font-family="Arial" font-size="14.00">remember_token </text>
<text text-anchor="start" x="749.97" y="-465.8" font-family="Arial" font-size="14.00" fill="#666666">[varchar(100)]</text>
<polygon fill="none" stroke="black" points="633.25,-422.8 633.25,-453.6 856.61,-453.6 856.61,-422.8 633.25,-422.8"/>
<text text-anchor="start" x="640.25" y="-435" font-family="Arial" font-size="14.00">created_at </text>
<text text-anchor="start" x="710.3" y="-435" font-family="Arial" font-size="14.00" fill="#666666">[datetime]</text>
<polygon fill="none" stroke="black" points="633.25,-392 633.25,-422.8 856.61,-422.8 856.61,-392 633.25,-392"/>
<text text-anchor="start" x="640.25" y="-404.2" font-family="Arial" font-size="14.00">updated_at </text>
<text text-anchor="start" x="714.21" y="-404.2" font-family="Arial" font-size="14.00" fill="#666666">[datetime]</text>
<polygon fill="none" stroke="black" points="633.25,-361.2 633.25,-392 856.61,-392 856.61,-361.2 633.25,-361.2"/>
<text text-anchor="start" x="640.25" y="-373.4" font-family="Arial" font-size="14.00">deleted_at </text>
<text text-anchor="start" x="709.53" y="-373.4" font-family="Arial" font-size="14.00" fill="#666666">[datetime]</text>
</g>
<!-- users&#45;&gt;images -->
<g id="edge3" class="edge">
<title>users:avatar_image_id&#45;&gt;images:id</title>
<path fill="none" stroke="black" d="M622.24,-590.07C573.27,-567.61 596.29,-374.3 580.93,-318 564.36,-257.25 595.64,-184.8 532.67,-184.8"/>
<polygon fill="black" stroke="black" points="622.14,-590.04 630.98,-596.53 627.36,-591.16 631.6,-592.06 631.6,-592.06 631.6,-592.06 627.36,-591.16 632.86,-587.73 622.14,-590.04"/>
<text text-anchor="start" x="639.25" y="-602.2" font-family="Arial" font-size="10.00">FOREIGN KEY (avatar_image_id) REFERENCES images (id)</text>
</g>
</g>
</svg>
