<?xml version="1.0" encoding="UTF-8" standalone="no"?>
<!DOCTYPE svg PUBLIC "-//W3C//DTD SVG 1.1//EN"
 "http://www.w3.org/Graphics/SVG/1.1/DTD/svg11.dtd">
<!-- Generated by graphviz version 12.1.2 (20240928.0832)
 -->
<!-- Title: images Pages: 1 -->
<svg width="641pt" height="941pt"
 viewBox="0.00 0.00 641.33 940.80" xmlns="http://www.w3.org/2000/svg" xmlns:xlink="http://www.w3.org/1999/xlink">
<g id="graph0" class="graph" transform="scale(1 1) rotate(0) translate(4 936.8)">
<title>images</title>
<polygon fill="white" stroke="none" points="-4,4 -4,-936.8 637.33,-936.8 637.33,4 -4,4"/>
<!-- images -->
<g id="node1" class="node">
<title>images</title>
<polygon fill="#efefef" stroke="none" points="204.19,-200.2 204.19,-235.8 393.67,-235.8 393.67,-200.2 204.19,-200.2"/>
<polygon fill="none" stroke="black" points="204.19,-200.2 204.19,-235.8 393.67,-235.8 393.67,-200.2 204.19,-200.2"/>
<text text-anchor="start" x="211.19" y="-213.6" font-family="Arial Bold" font-size="18.00">images</text>
<text text-anchor="start" x="262.18" y="-213.6" font-family="Arial" font-size="14.00">    </text>
<text text-anchor="start" x="293.3" y="-213.6" font-family="Arial" font-size="14.00" fill="#666666">[BASE TABLE]</text>
<polygon fill="none" stroke="black" points="204.19,-169.4 204.19,-200.2 393.67,-200.2 393.67,-169.4 204.19,-169.4"/>
<text text-anchor="start" x="211.19" y="-181.6" font-family="Arial" font-size="14.00">id </text>
<text text-anchor="start" x="225.98" y="-181.6" font-family="Arial" font-size="14.00" fill="#666666">[bigint unsigned]</text>
<polygon fill="none" stroke="black" points="204.19,-138.6 204.19,-169.4 393.67,-169.4 393.67,-138.6 204.19,-138.6"/>
<text text-anchor="start" x="211.19" y="-150.8" font-family="Arial" font-size="14.00">file_name </text>
<text text-anchor="start" x="275.79" y="-150.8" font-family="Arial" font-size="14.00" fill="#666666">[varchar(200)]</text>
<polygon fill="none" stroke="black" points="204.19,-107.8 204.19,-138.6 393.67,-138.6 393.67,-107.8 204.19,-107.8"/>
<text text-anchor="start" x="211.19" y="-120" font-family="Arial" font-size="14.00">type </text>
<text text-anchor="start" x="241.55" y="-120" font-family="Arial" font-size="14.00" fill="#666666">[tinyint]</text>
<polygon fill="none" stroke="black" points="204.19,-77 204.19,-107.8 393.67,-107.8 393.67,-77 204.19,-77"/>
<text text-anchor="start" x="211.19" y="-89.2" font-family="Arial" font-size="14.00">created_at </text>
<text text-anchor="start" x="281.24" y="-89.2" font-family="Arial" font-size="14.00" fill="#666666">[datetime]</text>
<polygon fill="none" stroke="black" points="204.19,-46.2 204.19,-77 393.67,-77 393.67,-46.2 204.19,-46.2"/>
<text text-anchor="start" x="211.19" y="-58.4" font-family="Arial" font-size="14.00">updated_at </text>
<text text-anchor="start" x="285.15" y="-58.4" font-family="Arial" font-size="14.00" fill="#666666">[datetime]</text>
<polygon fill="none" stroke="black" stroke-width="3" points="202.69,-44.7 202.69,-237.3 395.17,-237.3 395.17,-44.7 202.69,-44.7"/>
</g>
<!-- contacts -->
<g id="node2" class="node">
<title>contacts</title>
<polygon fill="#efefef" stroke="none" points="43.2,-730.8 43.2,-766.4 240.66,-766.4 240.66,-730.8 43.2,-730.8"/>
<polygon fill="none" stroke="black" points="43.2,-730.8 43.2,-766.4 240.66,-766.4 240.66,-730.8 43.2,-730.8"/>
<text text-anchor="start" x="50.2" y="-744.2" font-family="Arial Bold" font-size="18.00">contacts</text>
<text text-anchor="start" x="109.17" y="-744.2" font-family="Arial" font-size="14.00">    </text>
<text text-anchor="start" x="140.29" y="-744.2" font-family="Arial" font-size="14.00" fill="#666666">[BASE TABLE]</text>
<polygon fill="none" stroke="black" points="43.2,-700 43.2,-730.8 240.66,-730.8 240.66,-700 43.2,-700"/>
<text text-anchor="start" x="50.2" y="-712.2" font-family="Arial" font-size="14.00">id </text>
<text text-anchor="start" x="64.99" y="-712.2" font-family="Arial" font-size="14.00" fill="#666666">[bigint unsigned]</text>
<polygon fill="none" stroke="black" points="43.2,-669.2 43.2,-700 240.66,-700 240.66,-669.2 43.2,-669.2"/>
<text text-anchor="start" x="50.2" y="-681.4" font-family="Arial" font-size="14.00">user_id </text>
<text text-anchor="start" x="100.01" y="-681.4" font-family="Arial" font-size="14.00" fill="#666666">[bigint unsigned]</text>
<polygon fill="none" stroke="black" points="43.2,-638.4 43.2,-669.2 240.66,-669.2 240.66,-638.4 43.2,-638.4"/>
<text text-anchor="start" x="50.2" y="-650.6" font-family="Arial" font-size="14.00">type </text>
<text text-anchor="start" x="80.55" y="-650.6" font-family="Arial" font-size="14.00" fill="#666666">[tinyint]</text>
<polygon fill="none" stroke="black" points="43.2,-607.6 43.2,-638.4 240.66,-638.4 240.66,-607.6 43.2,-607.6"/>
<text text-anchor="start" x="50.2" y="-619.8" font-family="Arial" font-size="14.00">title </text>
<text text-anchor="start" x="75.88" y="-619.8" font-family="Arial" font-size="14.00" fill="#666666">[varchar(100)]</text>
<polygon fill="none" stroke="black" points="43.2,-576.8 43.2,-607.6 240.66,-607.6 240.66,-576.8 43.2,-576.8"/>
<text text-anchor="start" x="50.2" y="-589" font-family="Arial" font-size="14.00">message </text>
<text text-anchor="start" x="110.9" y="-589" font-family="Arial" font-size="14.00" fill="#666666">[varchar(500)]</text>
<polygon fill="none" stroke="black" points="43.2,-546 43.2,-576.8 240.66,-576.8 240.66,-546 43.2,-546"/>
<text text-anchor="start" x="50.2" y="-558.2" font-family="Arial" font-size="14.00">image_id </text>
<text text-anchor="start" x="110.9" y="-558.2" font-family="Arial" font-size="14.00" fill="#666666">[bigint unsigned]</text>
<polygon fill="none" stroke="black" points="43.2,-515.2 43.2,-546 240.66,-546 240.66,-515.2 43.2,-515.2"/>
<text text-anchor="start" x="50.2" y="-527.4" font-family="Arial" font-size="14.00">created_at </text>
<text text-anchor="start" x="120.25" y="-527.4" font-family="Arial" font-size="14.00" fill="#666666">[datetime]</text>
<polygon fill="none" stroke="black" points="43.2,-484.4 43.2,-515.2 240.66,-515.2 240.66,-484.4 43.2,-484.4"/>
<text text-anchor="start" x="50.2" y="-496.6" font-family="Arial" font-size="14.00">updated_at </text>
<text text-anchor="start" x="124.16" y="-496.6" font-family="Arial" font-size="14.00" fill="#666666">[datetime]</text>
</g>
<!-- contacts&#45;&gt;images -->
<g id="edge1" class="edge">
<title>contacts:image_id&#45;&gt;images:id</title>
<path fill="none" stroke="black" d="M251.77,-560.89C394.05,-545.39 38.56,-184.8 203.19,-184.8"/>
<polygon fill="black" stroke="black" points="251.98,-560.87 241.77,-556.89 246.66,-561.15 242.33,-561.37 242.33,-561.37 242.33,-561.37 246.66,-561.15 242.23,-565.88 251.98,-560.87"/>
<text text-anchor="start" x="248.66" y="-571.4" font-family="Arial" font-size="10.00">FOREIGN KEY (image_id) REFERENCES images (id)</text>
</g>
<!-- users -->
<g id="node3" class="node">
<title>users</title>
<polygon fill="#efefef" stroke="none" points="345.25,-854 345.25,-889.6 568.61,-889.6 568.61,-854 345.25,-854"/>
<polygon fill="none" stroke="black" points="345.25,-854 345.25,-889.6 568.61,-889.6 568.61,-854 345.25,-854"/>
<text text-anchor="start" x="376.19" y="-867.4" font-family="Arial Bold" font-size="18.00">users</text>
<text text-anchor="start" x="413.18" y="-867.4" font-family="Arial" font-size="14.00">    </text>
<text text-anchor="start" x="444.3" y="-867.4" font-family="Arial" font-size="14.00" fill="#666666">[BASE TABLE]</text>
<polygon fill="none" stroke="black" points="345.25,-823.2 345.25,-854 568.61,-854 568.61,-823.2 345.25,-823.2"/>
<text text-anchor="start" x="352.25" y="-835.4" font-family="Arial" font-size="14.00">id </text>
<text text-anchor="start" x="367.04" y="-835.4" font-family="Arial" font-size="14.00" fill="#666666">[bigint unsigned]</text>
<polygon fill="none" stroke="black" points="345.25,-792.4 345.25,-823.2 568.61,-823.2 568.61,-792.4 345.25,-792.4"/>
<text text-anchor="start" x="352.25" y="-804.6" font-family="Arial" font-size="14.00">name </text>
<text text-anchor="start" x="391.16" y="-804.6" font-family="Arial" font-size="14.00" fill="#666666">[varchar(255)]</text>
<polygon fill="none" stroke="black" points="345.25,-761.6 345.25,-792.4 568.61,-792.4 568.61,-761.6 345.25,-761.6"/>
<text text-anchor="start" x="352.25" y="-773.8" font-family="Arial" font-size="14.00">email </text>
<text text-anchor="start" x="389.59" y="-773.8" font-family="Arial" font-size="14.00" fill="#666666">[varchar(255)]</text>
<polygon fill="none" stroke="black" points="345.25,-730.8 345.25,-761.6 568.61,-761.6 568.61,-730.8 345.25,-730.8"/>
<text text-anchor="start" x="352.25" y="-743" font-family="Arial" font-size="14.00">stripe_customer_id </text>
<text text-anchor="start" x="474.41" y="-743" font-family="Arial" font-size="14.00" fill="#666666">[varchar(255)]</text>
<polygon fill="none" stroke="black" points="345.25,-700 345.25,-730.8 568.61,-730.8 568.61,-700 345.25,-700"/>
<text text-anchor="start" x="352.25" y="-712.2" font-family="Arial" font-size="14.00">plan </text>
<text text-anchor="start" x="382.61" y="-712.2" font-family="Arial" font-size="14.00" fill="#666666">[varchar(20)]</text>
<polygon fill="none" stroke="black" points="345.25,-669.2 345.25,-700 568.61,-700 568.61,-669.2 345.25,-669.2"/>
<text text-anchor="start" x="352.25" y="-681.4" font-family="Arial" font-size="14.00">plan_expires_at </text>
<text text-anchor="start" x="454.99" y="-681.4" font-family="Arial" font-size="14.00" fill="#666666">[datetime]</text>
<polygon fill="none" stroke="black" points="345.25,-638.4 345.25,-669.2 568.61,-669.2 568.61,-638.4 345.25,-638.4"/>
<text text-anchor="start" x="352.25" y="-650.6" font-family="Arial" font-size="14.00">email_verified_at </text>
<text text-anchor="start" x="461.97" y="-650.6" font-family="Arial" font-size="14.00" fill="#666666">[datetime]</text>
<polygon fill="none" stroke="black" points="345.25,-607.6 345.25,-638.4 568.61,-638.4 568.61,-607.6 345.25,-607.6"/>
<text text-anchor="start" x="352.25" y="-619.8" font-family="Arial" font-size="14.00">password </text>
<text text-anchor="start" x="416.06" y="-619.8" font-family="Arial" font-size="14.00" fill="#666666">[varchar(255)]</text>
<polygon fill="none" stroke="black" points="345.25,-576.8 345.25,-607.6 568.61,-607.6 568.61,-576.8 345.25,-576.8"/>
<text text-anchor="start" x="352.25" y="-589" font-family="Arial" font-size="14.00">avatar_image_id </text>
<text text-anchor="start" x="459.65" y="-589" font-family="Arial" font-size="14.00" fill="#666666">[bigint unsigned]</text>
<polygon fill="none" stroke="black" points="345.25,-546 345.25,-576.8 568.61,-576.8 568.61,-546 345.25,-546"/>
<text text-anchor="start" x="352.25" y="-558.2" font-family="Arial" font-size="14.00">google_id </text>
<text text-anchor="start" x="416.86" y="-558.2" font-family="Arial" font-size="14.00" fill="#666666">[varchar(255)]</text>
<polygon fill="none" stroke="black" points="345.25,-515.2 345.25,-546 568.61,-546 568.61,-515.2 345.25,-515.2"/>
<text text-anchor="start" x="352.25" y="-527.4" font-family="Arial" font-size="14.00">avatar_url </text>
<text text-anchor="start" x="418.39" y="-527.4" font-family="Arial" font-size="14.00" fill="#666666">[varchar(255)]</text>
<polygon fill="none" stroke="black" points="345.25,-484.4 345.25,-515.2 568.61,-515.2 568.61,-484.4 345.25,-484.4"/>
<text text-anchor="start" x="352.25" y="-496.6" font-family="Arial" font-size="14.00">status </text>
<text text-anchor="start" x="393.49" y="-496.6" font-family="Arial" font-size="14.00" fill="#666666">[tinyint]</text>
<polygon fill="none" stroke="black" points="345.25,-453.6 345.25,-484.4 568.61,-484.4 568.61,-453.6 345.25,-453.6"/>
<text text-anchor="start" x="352.25" y="-465.8" font-family="Arial" font-size="14.00">remember_token </text>
<text text-anchor="start" x="461.97" y="-465.8" font-family="Arial" font-size="14.00" fill="#666666">[varchar(100)]</text>
<polygon fill="none" stroke="black" points="345.25,-422.8 345.25,-453.6 568.61,-453.6 568.61,-422.8 345.25,-422.8"/>
<text text-anchor="start" x="352.25" y="-435" font-family="Arial" font-size="14.00">created_at </text>
<text text-anchor="start" x="422.3" y="-435" font-family="Arial" font-size="14.00" fill="#666666">[datetime]</text>
<polygon fill="none" stroke="black" points="345.25,-392 345.25,-422.8 568.61,-422.8 568.61,-392 345.25,-392"/>
<text text-anchor="start" x="352.25" y="-404.2" font-family="Arial" font-size="14.00">updated_at </text>
<text text-anchor="start" x="426.21" y="-404.2" font-family="Arial" font-size="14.00" fill="#666666">[datetime]</text>
<polygon fill="none" stroke="black" points="345.25,-361.2 345.25,-392 568.61,-392 568.61,-361.2 345.25,-361.2"/>
<text text-anchor="start" x="352.25" y="-373.4" font-family="Arial" font-size="14.00">deleted_at </text>
<text text-anchor="start" x="421.53" y="-373.4" font-family="Arial" font-size="14.00" fill="#666666">[datetime]</text>
</g>
<!-- users&#45;&gt;images -->
<g id="edge2" class="edge">
<title>users:avatar_image_id&#45;&gt;images:id</title>
<path fill="none" stroke="black" d="M334.21,-589.87C287.46,-566.19 319.45,-369.1 345.25,-318 357.34,-294.06 381.5,-305.9 393.67,-282 413.27,-243.5 437.87,-184.8 394.67,-184.8"/>
<polygon fill="black" stroke="black" points="334.18,-589.86 342.91,-596.51 339.38,-591.07 343.6,-592.05 343.6,-592.05 343.6,-592.05 339.38,-591.07 344.94,-587.74 334.18,-589.86"/>
<text text-anchor="start" x="351.25" y="-602.2" font-family="Arial" font-size="10.00">FOREIGN KEY (avatar_image_id) REFERENCES images (id)</text>
</g>
</g>
</svg>
