<?xml version="1.0" encoding="UTF-8" standalone="no"?>
<!DOCTYPE svg PUBLIC "-//W3C//DTD SVG 1.1//EN"
 "http://www.w3.org/Graphics/SVG/1.1/DTD/svg11.dtd">
<!-- Generated by graphviz version 12.1.2 (20240928.0832)
 -->
<!-- Title: job_batches Pages: 1 -->
<svg width="325pt" height="444pt"
 viewBox="0.00 0.00 324.86 444.00" xmlns="http://www.w3.org/2000/svg" xmlns:xlink="http://www.w3.org/1999/xlink">
<g id="graph0" class="graph" transform="scale(1 1) rotate(0) translate(4 440)">
<title>job_batches</title>
<polygon fill="white" stroke="none" points="-4,4 -4,-440 320.86,-440 320.86,4 -4,4"/>
<!-- job_batches -->
<g id="node1" class="node">
<title>job_batches</title>
<polygon fill="#efefef" stroke="none" points="46.2,-354.2 46.2,-389.8 270.66,-389.8 270.66,-354.2 46.2,-354.2"/>
<polygon fill="none" stroke="black" points="46.2,-354.2 46.2,-389.8 270.66,-389.8 270.66,-354.2 46.2,-354.2"/>
<text text-anchor="start" x="53.2" y="-367.6" font-family="Arial Bold" font-size="18.00">job_batches</text>
<text text-anchor="start" x="139.17" y="-367.6" font-family="Arial" font-size="14.00">    </text>
<text text-anchor="start" x="170.29" y="-367.6" font-family="Arial" font-size="14.00" fill="#666666">[BASE TABLE]</text>
<polygon fill="none" stroke="black" points="46.2,-323.4 46.2,-354.2 270.66,-354.2 270.66,-323.4 46.2,-323.4"/>
<text text-anchor="start" x="53.2" y="-335.6" font-family="Arial" font-size="14.00">id </text>
<text text-anchor="start" x="67.99" y="-335.6" font-family="Arial" font-size="14.00" fill="#666666">[varchar(255)]</text>
<polygon fill="none" stroke="black" points="46.2,-292.6 46.2,-323.4 270.66,-323.4 270.66,-292.6 46.2,-292.6"/>
<text text-anchor="start" x="53.2" y="-304.8" font-family="Arial" font-size="14.00">name </text>
<text text-anchor="start" x="92.11" y="-304.8" font-family="Arial" font-size="14.00" fill="#666666">[varchar(255)]</text>
<polygon fill="none" stroke="black" points="46.2,-261.8 46.2,-292.6 270.66,-292.6 270.66,-261.8 46.2,-261.8"/>
<text text-anchor="start" x="53.2" y="-274" font-family="Arial" font-size="14.00">total_jobs </text>
<text text-anchor="start" x="117.02" y="-274" font-family="Arial" font-size="14.00" fill="#666666">[int]</text>
<polygon fill="none" stroke="black" points="46.2,-231 46.2,-261.8 270.66,-261.8 270.66,-231 46.2,-231"/>
<text text-anchor="start" x="53.2" y="-243.2" font-family="Arial" font-size="14.00">pending_jobs </text>
<text text-anchor="start" x="140.39" y="-243.2" font-family="Arial" font-size="14.00" fill="#666666">[int]</text>
<polygon fill="none" stroke="black" points="46.2,-200.2 46.2,-231 270.66,-231 270.66,-200.2 46.2,-200.2"/>
<text text-anchor="start" x="53.2" y="-212.4" font-family="Arial" font-size="14.00">failed_jobs </text>
<text text-anchor="start" x="124.03" y="-212.4" font-family="Arial" font-size="14.00" fill="#666666">[int]</text>
<polygon fill="none" stroke="black" points="46.2,-169.4 46.2,-200.2 270.66,-200.2 270.66,-169.4 46.2,-169.4"/>
<text text-anchor="start" x="53.2" y="-181.6" font-family="Arial" font-size="14.00">failed_job_ids </text>
<text text-anchor="start" x="142.71" y="-181.6" font-family="Arial" font-size="14.00" fill="#666666">[longtext]</text>
<polygon fill="none" stroke="black" points="46.2,-138.6 46.2,-169.4 270.66,-169.4 270.66,-138.6 46.2,-138.6"/>
<text text-anchor="start" x="53.2" y="-150.8" font-family="Arial" font-size="14.00">options </text>
<text text-anchor="start" x="102.23" y="-150.8" font-family="Arial" font-size="14.00" fill="#666666">[mediumtext]</text>
<polygon fill="none" stroke="black" points="46.2,-107.8 46.2,-138.6 270.66,-138.6 270.66,-107.8 46.2,-107.8"/>
<text text-anchor="start" x="53.2" y="-120" font-family="Arial" font-size="14.00">cancelled_at </text>
<text text-anchor="start" x="135.7" y="-120" font-family="Arial" font-size="14.00" fill="#666666">[int]</text>
<polygon fill="none" stroke="black" points="46.2,-77 46.2,-107.8 270.66,-107.8 270.66,-77 46.2,-77"/>
<text text-anchor="start" x="53.2" y="-89.2" font-family="Arial" font-size="14.00">created_at </text>
<text text-anchor="start" x="123.25" y="-89.2" font-family="Arial" font-size="14.00" fill="#666666">[int]</text>
<polygon fill="none" stroke="black" points="46.2,-46.2 46.2,-77 270.66,-77 270.66,-46.2 46.2,-46.2"/>
<text text-anchor="start" x="53.2" y="-58.4" font-family="Arial" font-size="14.00">finished_at </text>
<text text-anchor="start" x="124.81" y="-58.4" font-family="Arial" font-size="14.00" fill="#666666">[int]</text>
<polygon fill="none" stroke="black" stroke-width="3" points="44.7,-44.7 44.7,-391.3 272.16,-391.3 272.16,-44.7 44.7,-44.7"/>
</g>
</g>
</svg>
