<?xml version="1.0" encoding="UTF-8" standalone="no"?>
<!DOCTYPE svg PUBLIC "-//W3C//DTD SVG 1.1//EN"
 "http://www.w3.org/Graphics/SVG/1.1/DTD/svg11.dtd">
<!-- Generated by graphviz version 12.1.2 (20240928.0832)
 -->
<!-- Title: jobs Pages: 1 -->
<svg width="277pt" height="352pt"
 viewBox="0.00 0.00 277.05 351.60" xmlns="http://www.w3.org/2000/svg" xmlns:xlink="http://www.w3.org/1999/xlink">
<g id="graph0" class="graph" transform="scale(1 1) rotate(0) translate(4 347.6)">
<title>jobs</title>
<polygon fill="white" stroke="none" points="-4,4 -4,-347.6 273.05,-347.6 273.05,4 -4,4"/>
<!-- jobs -->
<g id="node1" class="node">
<title>jobs</title>
<polygon fill="#efefef" stroke="none" points="46.2,-261.8 46.2,-297.4 222.85,-297.4 222.85,-261.8 46.2,-261.8"/>
<polygon fill="none" stroke="black" points="46.2,-261.8 46.2,-297.4 222.85,-297.4 222.85,-261.8 46.2,-261.8"/>
<text text-anchor="start" x="57.28" y="-275.2" font-family="Arial Bold" font-size="18.00">jobs</text>
<text text-anchor="start" x="87.28" y="-275.2" font-family="Arial" font-size="14.00">    </text>
<text text-anchor="start" x="118.4" y="-275.2" font-family="Arial" font-size="14.00" fill="#666666">[BASE TABLE]</text>
<polygon fill="none" stroke="black" points="46.2,-231 46.2,-261.8 222.85,-261.8 222.85,-231 46.2,-231"/>
<text text-anchor="start" x="53.2" y="-243.2" font-family="Arial" font-size="14.00">id </text>
<text text-anchor="start" x="67.99" y="-243.2" font-family="Arial" font-size="14.00" fill="#666666">[bigint unsigned]</text>
<polygon fill="none" stroke="black" points="46.2,-200.2 46.2,-231 222.85,-231 222.85,-200.2 46.2,-200.2"/>
<text text-anchor="start" x="53.2" y="-212.4" font-family="Arial" font-size="14.00">queue </text>
<text text-anchor="start" x="96.02" y="-212.4" font-family="Arial" font-size="14.00" fill="#666666">[varchar(255)]</text>
<polygon fill="none" stroke="black" points="46.2,-169.4 46.2,-200.2 222.85,-200.2 222.85,-169.4 46.2,-169.4"/>
<text text-anchor="start" x="53.2" y="-181.6" font-family="Arial" font-size="14.00">payload </text>
<text text-anchor="start" x="106.13" y="-181.6" font-family="Arial" font-size="14.00" fill="#666666">[longtext]</text>
<polygon fill="none" stroke="black" points="46.2,-138.6 46.2,-169.4 222.85,-169.4 222.85,-138.6 46.2,-138.6"/>
<text text-anchor="start" x="53.2" y="-150.8" font-family="Arial" font-size="14.00">attempts </text>
<text text-anchor="start" x="110.78" y="-150.8" font-family="Arial" font-size="14.00" fill="#666666">[tinyint unsigned]</text>
<polygon fill="none" stroke="black" points="46.2,-107.8 46.2,-138.6 222.85,-138.6 222.85,-107.8 46.2,-107.8"/>
<text text-anchor="start" x="53.2" y="-120" font-family="Arial" font-size="14.00">reserved_at </text>
<text text-anchor="start" x="131.02" y="-120" font-family="Arial" font-size="14.00" fill="#666666">[int unsigned]</text>
<polygon fill="none" stroke="black" points="46.2,-77 46.2,-107.8 222.85,-107.8 222.85,-77 46.2,-77"/>
<text text-anchor="start" x="53.2" y="-89.2" font-family="Arial" font-size="14.00">available_at </text>
<text text-anchor="start" x="131.81" y="-89.2" font-family="Arial" font-size="14.00" fill="#666666">[int unsigned]</text>
<polygon fill="none" stroke="black" points="46.2,-46.2 46.2,-77 222.85,-77 222.85,-46.2 46.2,-46.2"/>
<text text-anchor="start" x="53.2" y="-58.4" font-family="Arial" font-size="14.00">created_at </text>
<text text-anchor="start" x="123.25" y="-58.4" font-family="Arial" font-size="14.00" fill="#666666">[int unsigned]</text>
<polygon fill="none" stroke="black" stroke-width="3" points="44.7,-44.7 44.7,-298.9 224.35,-298.9 224.35,-44.7 44.7,-44.7"/>
</g>
</g>
</svg>
