<?xml version="1.0" encoding="UTF-8" standalone="no"?>
<!DOCTYPE svg PUBLIC "-//W3C//DTD SVG 1.1//EN"
 "http://www.w3.org/Graphics/SVG/1.1/DTD/svg11.dtd">
<!-- Generated by graphviz version 12.1.2 (20240928.0832)
 -->
<!-- Title: liquidations Pages: 1 -->
<svg width="324pt" height="382pt"
 viewBox="0.00 0.00 323.89 382.40" xmlns="http://www.w3.org/2000/svg" xmlns:xlink="http://www.w3.org/1999/xlink">
<g id="graph0" class="graph" transform="scale(1 1) rotate(0) translate(4 378.4)">
<title>liquidations</title>
<polygon fill="white" stroke="none" points="-4,4 -4,-378.4 319.89,-378.4 319.89,4 -4,4"/>
<!-- liquidations -->
<g id="node1" class="node">
<title>liquidations</title>
<polygon fill="#efefef" stroke="none" points="46.2,-292.6 46.2,-328.2 269.69,-328.2 269.69,-292.6 46.2,-292.6"/>
<polygon fill="none" stroke="black" points="46.2,-292.6 46.2,-328.2 269.69,-328.2 269.69,-292.6 46.2,-292.6"/>
<text text-anchor="start" x="53.2" y="-306" font-family="Arial Bold" font-size="18.00">liquidations</text>
<text text-anchor="start" x="138.2" y="-306" font-family="Arial" font-size="14.00">    </text>
<text text-anchor="start" x="169.32" y="-306" font-family="Arial" font-size="14.00" fill="#666666">[BASE TABLE]</text>
<polygon fill="none" stroke="black" points="46.2,-261.8 46.2,-292.6 269.69,-292.6 269.69,-261.8 46.2,-261.8"/>
<text text-anchor="start" x="53.2" y="-274" font-family="Arial" font-size="14.00">id </text>
<text text-anchor="start" x="67.99" y="-274" font-family="Arial" font-size="14.00" fill="#666666">[bigint unsigned]</text>
<polygon fill="none" stroke="black" points="46.2,-231 46.2,-261.8 269.69,-261.8 269.69,-231 46.2,-231"/>
<text text-anchor="start" x="53.2" y="-243.2" font-family="Arial" font-size="14.00">symbol </text>
<text text-anchor="start" x="101.43" y="-243.2" font-family="Arial" font-size="14.00" fill="#666666">[varchar(20)]</text>
<polygon fill="none" stroke="black" points="46.2,-200.2 46.2,-231 269.69,-231 269.69,-200.2 46.2,-200.2"/>
<text text-anchor="start" x="53.2" y="-212.4" font-family="Arial" font-size="14.00">side </text>
<text text-anchor="start" x="82.77" y="-212.4" font-family="Arial" font-size="14.00" fill="#666666">[tinyint]</text>
<polygon fill="none" stroke="black" points="46.2,-169.4 46.2,-200.2 269.69,-200.2 269.69,-169.4 46.2,-169.4"/>
<text text-anchor="start" x="53.2" y="-181.6" font-family="Arial" font-size="14.00">price </text>
<text text-anchor="start" x="87.43" y="-181.6" font-family="Arial" font-size="14.00" fill="#666666">[decimal(12,2)]</text>
<polygon fill="none" stroke="black" points="46.2,-138.6 46.2,-169.4 269.69,-169.4 269.69,-138.6 46.2,-138.6"/>
<text text-anchor="start" x="53.2" y="-150.8" font-family="Arial" font-size="14.00">quantity </text>
<text text-anchor="start" x="106.12" y="-150.8" font-family="Arial" font-size="14.00" fill="#666666">[decimal(12,4)]</text>
<polygon fill="none" stroke="black" points="46.2,-107.8 46.2,-138.6 269.69,-138.6 269.69,-107.8 46.2,-107.8"/>
<text text-anchor="start" x="53.2" y="-120" font-family="Arial" font-size="14.00">value_usd </text>
<text text-anchor="start" x="120.92" y="-120" font-family="Arial" font-size="14.00" fill="#666666">[decimal(14,2)]</text>
<polygon fill="none" stroke="black" points="46.2,-77 46.2,-107.8 269.69,-107.8 269.69,-77 46.2,-77"/>
<text text-anchor="start" x="53.2" y="-89.2" font-family="Arial" font-size="14.00">liq_time </text>
<text text-anchor="start" x="105.33" y="-89.2" font-family="Arial" font-size="14.00" fill="#666666">[bigint]</text>
<polygon fill="none" stroke="black" points="46.2,-46.2 46.2,-77 269.69,-77 269.69,-46.2 46.2,-46.2"/>
<text text-anchor="start" x="53.2" y="-58.4" font-family="Arial" font-size="14.00">created_at </text>
<text text-anchor="start" x="123.25" y="-58.4" font-family="Arial" font-size="14.00" fill="#666666">[datetime]</text>
<polygon fill="none" stroke="black" stroke-width="3" points="44.7,-44.7 44.7,-329.7 271.19,-329.7 271.19,-44.7 44.7,-44.7"/>
</g>
</g>
</svg>
