<?xml version="1.0" encoding="UTF-8" standalone="no"?>
<!DOCTYPE svg PUBLIC "-//W3C//DTD SVG 1.1//EN"
 "http://www.w3.org/Graphics/SVG/1.1/DTD/svg11.dtd">
<!-- Generated by graphviz version 12.1.2 (20240928.0832)
 -->
<!-- Title: push_subscriptions Pages: 1 -->
<svg width="572pt" height="1002pt"
 viewBox="0.00 0.00 571.85 1002.40" xmlns="http://www.w3.org/2000/svg" xmlns:xlink="http://www.w3.org/1999/xlink">
<g id="graph0" class="graph" transform="scale(1 1) rotate(0) translate(4 998.4)">
<title>push_subscriptions</title>
<polygon fill="white" stroke="none" points="-4,4 -4,-998.4 567.85,-998.4 567.85,4 -4,4"/>
<!-- push_subscriptions -->
<g id="node1" class="node">
<title>push_subscriptions</title>
<polygon fill="#efefef" stroke="none" points="46.2,-912.6 46.2,-948.2 322.7,-948.2 322.7,-912.6 46.2,-912.6"/>
<polygon fill="none" stroke="black" points="46.2,-912.6 46.2,-948.2 322.7,-948.2 322.7,-912.6 46.2,-912.6"/>
<text text-anchor="start" x="53.2" y="-926" font-family="Arial Bold" font-size="18.00">push_subscriptions</text>
<text text-anchor="start" x="191.21" y="-926" font-family="Arial" font-size="14.00">    </text>
<text text-anchor="start" x="222.32" y="-926" font-family="Arial" font-size="14.00" fill="#666666">[BASE TABLE]</text>
<polygon fill="none" stroke="black" points="46.2,-881.8 46.2,-912.6 322.7,-912.6 322.7,-881.8 46.2,-881.8"/>
<text text-anchor="start" x="53.2" y="-894" font-family="Arial" font-size="14.00">id </text>
<text text-anchor="start" x="67.99" y="-894" font-family="Arial" font-size="14.00" fill="#666666">[bigint unsigned]</text>
<polygon fill="none" stroke="black" points="46.2,-851 46.2,-881.8 322.7,-881.8 322.7,-851 46.2,-851"/>
<text text-anchor="start" x="53.2" y="-863.2" font-family="Arial" font-size="14.00">user_id </text>
<text text-anchor="start" x="103.01" y="-863.2" font-family="Arial" font-size="14.00" fill="#666666">[bigint unsigned]</text>
<polygon fill="none" stroke="black" points="46.2,-820.2 46.2,-851 322.7,-851 322.7,-820.2 46.2,-820.2"/>
<text text-anchor="start" x="53.2" y="-832.4" font-family="Arial" font-size="14.00">endpoint </text>
<text text-anchor="start" x="110.81" y="-832.4" font-family="Arial" font-size="14.00" fill="#666666">[text]</text>
<polygon fill="none" stroke="black" points="46.2,-789.4 46.2,-820.2 322.7,-820.2 322.7,-789.4 46.2,-789.4"/>
<text text-anchor="start" x="53.2" y="-801.6" font-family="Arial" font-size="14.00">p256dh </text>
<text text-anchor="start" x="103.81" y="-801.6" font-family="Arial" font-size="14.00" fill="#666666">[text]</text>
<polygon fill="none" stroke="black" points="46.2,-758.6 46.2,-789.4 322.7,-789.4 322.7,-758.6 46.2,-758.6"/>
<text text-anchor="start" x="53.2" y="-770.8" font-family="Arial" font-size="14.00">auth </text>
<text text-anchor="start" x="84.34" y="-770.8" font-family="Arial" font-size="14.00" fill="#666666">[text]</text>
<polygon fill="none" stroke="black" points="46.2,-727.8 46.2,-758.6 322.7,-758.6 322.7,-727.8 46.2,-727.8"/>
<text text-anchor="start" x="53.2" y="-740" font-family="Arial" font-size="14.00">created_at </text>
<text text-anchor="start" x="123.25" y="-740" font-family="Arial" font-size="14.00" fill="#666666">[datetime]</text>
<polygon fill="none" stroke="black" points="46.2,-697 46.2,-727.8 322.7,-727.8 322.7,-697 46.2,-697"/>
<text text-anchor="start" x="53.2" y="-709.2" font-family="Arial" font-size="14.00">updated_at </text>
<text text-anchor="start" x="127.16" y="-709.2" font-family="Arial" font-size="14.00" fill="#666666">[datetime]</text>
<polygon fill="none" stroke="black" stroke-width="3" points="44.7,-695.5 44.7,-949.7 324.2,-949.7 324.2,-695.5 44.7,-695.5"/>
</g>
<!-- users -->
<g id="node2" class="node">
<title>users</title>
<polygon fill="#efefef" stroke="none" points="72.77,-536 72.77,-571.6 296.13,-571.6 296.13,-536 72.77,-536"/>
<polygon fill="none" stroke="black" points="72.77,-536 72.77,-571.6 296.13,-571.6 296.13,-536 72.77,-536"/>
<text text-anchor="start" x="103.71" y="-549.4" font-family="Arial Bold" font-size="18.00">users</text>
<text text-anchor="start" x="140.7" y="-549.4" font-family="Arial" font-size="14.00">    </text>
<text text-anchor="start" x="171.82" y="-549.4" font-family="Arial" font-size="14.00" fill="#666666">[BASE TABLE]</text>
<polygon fill="none" stroke="black" points="72.77,-505.2 72.77,-536 296.13,-536 296.13,-505.2 72.77,-505.2"/>
<text text-anchor="start" x="79.77" y="-517.4" font-family="Arial" font-size="14.00">id </text>
<text text-anchor="start" x="94.55" y="-517.4" font-family="Arial" font-size="14.00" fill="#666666">[bigint unsigned]</text>
<polygon fill="none" stroke="black" points="72.77,-474.4 72.77,-505.2 296.13,-505.2 296.13,-474.4 72.77,-474.4"/>
<text text-anchor="start" x="79.77" y="-486.6" font-family="Arial" font-size="14.00">name </text>
<text text-anchor="start" x="118.68" y="-486.6" font-family="Arial" font-size="14.00" fill="#666666">[varchar(255)]</text>
<polygon fill="none" stroke="black" points="72.77,-443.6 72.77,-474.4 296.13,-474.4 296.13,-443.6 72.77,-443.6"/>
<text text-anchor="start" x="79.77" y="-455.8" font-family="Arial" font-size="14.00">email </text>
<text text-anchor="start" x="117.11" y="-455.8" font-family="Arial" font-size="14.00" fill="#666666">[varchar(255)]</text>
<polygon fill="none" stroke="black" points="72.77,-412.8 72.77,-443.6 296.13,-443.6 296.13,-412.8 72.77,-412.8"/>
<text text-anchor="start" x="79.77" y="-425" font-family="Arial" font-size="14.00">stripe_customer_id </text>
<text text-anchor="start" x="201.93" y="-425" font-family="Arial" font-size="14.00" fill="#666666">[varchar(255)]</text>
<polygon fill="none" stroke="black" points="72.77,-382 72.77,-412.8 296.13,-412.8 296.13,-382 72.77,-382"/>
<text text-anchor="start" x="79.77" y="-394.2" font-family="Arial" font-size="14.00">plan </text>
<text text-anchor="start" x="110.12" y="-394.2" font-family="Arial" font-size="14.00" fill="#666666">[varchar(20)]</text>
<polygon fill="none" stroke="black" points="72.77,-351.2 72.77,-382 296.13,-382 296.13,-351.2 72.77,-351.2"/>
<text text-anchor="start" x="79.77" y="-363.4" font-family="Arial" font-size="14.00">plan_expires_at </text>
<text text-anchor="start" x="182.5" y="-363.4" font-family="Arial" font-size="14.00" fill="#666666">[datetime]</text>
<polygon fill="none" stroke="black" points="72.77,-320.4 72.77,-351.2 296.13,-351.2 296.13,-320.4 72.77,-320.4"/>
<text text-anchor="start" x="79.77" y="-332.6" font-family="Arial" font-size="14.00">email_verified_at </text>
<text text-anchor="start" x="189.49" y="-332.6" font-family="Arial" font-size="14.00" fill="#666666">[datetime]</text>
<polygon fill="none" stroke="black" points="72.77,-289.6 72.77,-320.4 296.13,-320.4 296.13,-289.6 72.77,-289.6"/>
<text text-anchor="start" x="79.77" y="-301.8" font-family="Arial" font-size="14.00">password </text>
<text text-anchor="start" x="143.57" y="-301.8" font-family="Arial" font-size="14.00" fill="#666666">[varchar(255)]</text>
<polygon fill="none" stroke="black" points="72.77,-258.8 72.77,-289.6 296.13,-289.6 296.13,-258.8 72.77,-258.8"/>
<text text-anchor="start" x="79.77" y="-271" font-family="Arial" font-size="14.00">avatar_image_id </text>
<text text-anchor="start" x="187.16" y="-271" font-family="Arial" font-size="14.00" fill="#666666">[bigint unsigned]</text>
<polygon fill="none" stroke="black" points="72.77,-228 72.77,-258.8 296.13,-258.8 296.13,-228 72.77,-228"/>
<text text-anchor="start" x="79.77" y="-240.2" font-family="Arial" font-size="14.00">google_id </text>
<text text-anchor="start" x="144.38" y="-240.2" font-family="Arial" font-size="14.00" fill="#666666">[varchar(255)]</text>
<polygon fill="none" stroke="black" points="72.77,-197.2 72.77,-228 296.13,-228 296.13,-197.2 72.77,-197.2"/>
<text text-anchor="start" x="79.77" y="-209.4" font-family="Arial" font-size="14.00">avatar_url </text>
<text text-anchor="start" x="145.91" y="-209.4" font-family="Arial" font-size="14.00" fill="#666666">[varchar(255)]</text>
<polygon fill="none" stroke="black" points="72.77,-166.4 72.77,-197.2 296.13,-197.2 296.13,-166.4 72.77,-166.4"/>
<text text-anchor="start" x="79.77" y="-178.6" font-family="Arial" font-size="14.00">status </text>
<text text-anchor="start" x="121.01" y="-178.6" font-family="Arial" font-size="14.00" fill="#666666">[tinyint]</text>
<polygon fill="none" stroke="black" points="72.77,-135.6 72.77,-166.4 296.13,-166.4 296.13,-135.6 72.77,-135.6"/>
<text text-anchor="start" x="79.77" y="-147.8" font-family="Arial" font-size="14.00">remember_token </text>
<text text-anchor="start" x="189.48" y="-147.8" font-family="Arial" font-size="14.00" fill="#666666">[varchar(100)]</text>
<polygon fill="none" stroke="black" points="72.77,-104.8 72.77,-135.6 296.13,-135.6 296.13,-104.8 72.77,-104.8"/>
<text text-anchor="start" x="79.77" y="-117" font-family="Arial" font-size="14.00">created_at </text>
<text text-anchor="start" x="149.81" y="-117" font-family="Arial" font-size="14.00" fill="#666666">[datetime]</text>
<polygon fill="none" stroke="black" points="72.77,-74 72.77,-104.8 296.13,-104.8 296.13,-74 72.77,-74"/>
<text text-anchor="start" x="79.77" y="-86.2" font-family="Arial" font-size="14.00">updated_at </text>
<text text-anchor="start" x="153.72" y="-86.2" font-family="Arial" font-size="14.00" fill="#666666">[datetime]</text>
<polygon fill="none" stroke="black" points="72.77,-43.2 72.77,-74 296.13,-74 296.13,-43.2 72.77,-43.2"/>
<text text-anchor="start" x="79.77" y="-55.4" font-family="Arial" font-size="14.00">deleted_at </text>
<text text-anchor="start" x="149.05" y="-55.4" font-family="Arial" font-size="14.00" fill="#666666">[datetime]</text>
</g>
<!-- push_subscriptions&#45;&gt;users -->
<g id="edge1" class="edge">
<title>push_subscriptions:user_id&#45;&gt;users:id</title>
<path fill="none" stroke="black" d="M333.86,-864.19C398.16,-834.74 370.59,-520.6 297.13,-520.6"/>
<polygon fill="black" stroke="black" points="333.79,-864.21 323.07,-861.93 328.58,-865.34 324.35,-866.26 324.35,-866.26 324.35,-866.26 328.58,-865.34 324.98,-870.73 333.79,-864.21"/>
<text text-anchor="start" x="330.7" y="-876.4" font-family="Arial" font-size="10.00">FOREIGN KEY (user_id) REFERENCES users (id)</text>
</g>
</g>
</svg>
