<?xml version="1.0" encoding="UTF-8" standalone="no"?>
<!DOCTYPE svg PUBLIC "-//W3C//DTD SVG 1.1//EN"
 "http://www.w3.org/Graphics/SVG/1.1/DTD/svg11.dtd">
<!-- Generated by graphviz version 12.1.2 (20240928.0832)
 -->
<!-- Title: subscriptions Pages: 1 -->
<svg width="536pt" height="1156pt"
 viewBox="0.00 0.00 535.80 1156.40" xmlns="http://www.w3.org/2000/svg" xmlns:xlink="http://www.w3.org/1999/xlink">
<g id="graph0" class="graph" transform="scale(1 1) rotate(0) translate(4 1152.4)">
<title>subscriptions</title>
<polygon fill="white" stroke="none" points="-4,4 -4,-1152.4 531.8,-1152.4 531.8,4 -4,4"/>
<!-- subscriptions -->
<g id="node1" class="node">
<title>subscriptions</title>
<polygon fill="#efefef" stroke="none" points="46.2,-1066.6 46.2,-1102.2 286.64,-1102.2 286.64,-1066.6 46.2,-1066.6"/>
<polygon fill="none" stroke="black" points="46.2,-1066.6 46.2,-1102.2 286.64,-1102.2 286.64,-1066.6 46.2,-1066.6"/>
<text text-anchor="start" x="56.68" y="-1080" font-family="Arial Bold" font-size="18.00">subscriptions</text>
<text text-anchor="start" x="151.68" y="-1080" font-family="Arial" font-size="14.00">    </text>
<text text-anchor="start" x="182.79" y="-1080" font-family="Arial" font-size="14.00" fill="#666666">[BASE TABLE]</text>
<polygon fill="none" stroke="black" points="46.2,-1035.8 46.2,-1066.6 286.64,-1066.6 286.64,-1035.8 46.2,-1035.8"/>
<text text-anchor="start" x="53.2" y="-1048" font-family="Arial" font-size="14.00">id </text>
<text text-anchor="start" x="67.99" y="-1048" font-family="Arial" font-size="14.00" fill="#666666">[bigint unsigned]</text>
<polygon fill="none" stroke="black" points="46.2,-1005 46.2,-1035.8 286.64,-1035.8 286.64,-1005 46.2,-1005"/>
<text text-anchor="start" x="53.2" y="-1017.2" font-family="Arial" font-size="14.00">user_id </text>
<text text-anchor="start" x="103.01" y="-1017.2" font-family="Arial" font-size="14.00" fill="#666666">[bigint unsigned]</text>
<polygon fill="none" stroke="black" points="46.2,-974.2 46.2,-1005 286.64,-1005 286.64,-974.2 46.2,-974.2"/>
<text text-anchor="start" x="53.2" y="-986.4" font-family="Arial" font-size="14.00">stripe_customer_id </text>
<text text-anchor="start" x="175.37" y="-986.4" font-family="Arial" font-size="14.00" fill="#666666">[varchar(255)]</text>
<polygon fill="none" stroke="black" points="46.2,-943.4 46.2,-974.2 286.64,-974.2 286.64,-943.4 46.2,-943.4"/>
<text text-anchor="start" x="53.2" y="-955.6" font-family="Arial" font-size="14.00">stripe_subscription_id </text>
<text text-anchor="start" x="192.5" y="-955.6" font-family="Arial" font-size="14.00" fill="#666666">[varchar(255)]</text>
<polygon fill="none" stroke="black" points="46.2,-912.6 46.2,-943.4 286.64,-943.4 286.64,-912.6 46.2,-912.6"/>
<text text-anchor="start" x="53.2" y="-924.8" font-family="Arial" font-size="14.00">stripe_price_id </text>
<text text-anchor="start" x="148.14" y="-924.8" font-family="Arial" font-size="14.00" fill="#666666">[varchar(255)]</text>
<polygon fill="none" stroke="black" points="46.2,-881.8 46.2,-912.6 286.64,-912.6 286.64,-881.8 46.2,-881.8"/>
<text text-anchor="start" x="53.2" y="-894" font-family="Arial" font-size="14.00">plan </text>
<text text-anchor="start" x="83.56" y="-894" font-family="Arial" font-size="14.00" fill="#666666">[varchar(20)]</text>
<polygon fill="none" stroke="black" points="46.2,-851 46.2,-881.8 286.64,-881.8 286.64,-851 46.2,-851"/>
<text text-anchor="start" x="53.2" y="-863.2" font-family="Arial" font-size="14.00">status </text>
<text text-anchor="start" x="94.44" y="-863.2" font-family="Arial" font-size="14.00" fill="#666666">[varchar(20)]</text>
<polygon fill="none" stroke="black" points="46.2,-820.2 46.2,-851 286.64,-851 286.64,-820.2 46.2,-820.2"/>
<text text-anchor="start" x="53.2" y="-832.4" font-family="Arial" font-size="14.00">current_period_start </text>
<text text-anchor="start" x="182.38" y="-832.4" font-family="Arial" font-size="14.00" fill="#666666">[datetime]</text>
<polygon fill="none" stroke="black" points="46.2,-789.4 46.2,-820.2 286.64,-820.2 286.64,-789.4 46.2,-789.4"/>
<text text-anchor="start" x="53.2" y="-801.6" font-family="Arial" font-size="14.00">current_period_end </text>
<text text-anchor="start" x="178.51" y="-801.6" font-family="Arial" font-size="14.00" fill="#666666">[datetime]</text>
<polygon fill="none" stroke="black" points="46.2,-758.6 46.2,-789.4 286.64,-789.4 286.64,-758.6 46.2,-758.6"/>
<text text-anchor="start" x="53.2" y="-770.8" font-family="Arial" font-size="14.00">canceled_at </text>
<text text-anchor="start" x="132.59" y="-770.8" font-family="Arial" font-size="14.00" fill="#666666">[datetime]</text>
<polygon fill="none" stroke="black" points="46.2,-727.8 46.2,-758.6 286.64,-758.6 286.64,-727.8 46.2,-727.8"/>
<text text-anchor="start" x="53.2" y="-740" font-family="Arial" font-size="14.00">created_at </text>
<text text-anchor="start" x="123.25" y="-740" font-family="Arial" font-size="14.00" fill="#666666">[datetime]</text>
<polygon fill="none" stroke="black" points="46.2,-697 46.2,-727.8 286.64,-727.8 286.64,-697 46.2,-697"/>
<text text-anchor="start" x="53.2" y="-709.2" font-family="Arial" font-size="14.00">updated_at </text>
<text text-anchor="start" x="127.16" y="-709.2" font-family="Arial" font-size="14.00" fill="#666666">[datetime]</text>
<polygon fill="none" stroke="black" stroke-width="3" points="44.7,-695.5 44.7,-1103.7 288.14,-1103.7 288.14,-695.5 44.7,-695.5"/>
</g>
<!-- users -->
<g id="node2" class="node">
<title>users</title>
<polygon fill="#efefef" stroke="none" points="54.74,-536 54.74,-571.6 278.1,-571.6 278.1,-536 54.74,-536"/>
<polygon fill="none" stroke="black" points="54.74,-536 54.74,-571.6 278.1,-571.6 278.1,-536 54.74,-536"/>
<text text-anchor="start" x="85.68" y="-549.4" font-family="Arial Bold" font-size="18.00">users</text>
<text text-anchor="start" x="122.67" y="-549.4" font-family="Arial" font-size="14.00">    </text>
<text text-anchor="start" x="153.79" y="-549.4" font-family="Arial" font-size="14.00" fill="#666666">[BASE TABLE]</text>
<polygon fill="none" stroke="black" points="54.74,-505.2 54.74,-536 278.1,-536 278.1,-505.2 54.74,-505.2"/>
<text text-anchor="start" x="61.74" y="-517.4" font-family="Arial" font-size="14.00">id </text>
<text text-anchor="start" x="76.52" y="-517.4" font-family="Arial" font-size="14.00" fill="#666666">[bigint unsigned]</text>
<polygon fill="none" stroke="black" points="54.74,-474.4 54.74,-505.2 278.1,-505.2 278.1,-474.4 54.74,-474.4"/>
<text text-anchor="start" x="61.74" y="-486.6" font-family="Arial" font-size="14.00">name </text>
<text text-anchor="start" x="100.65" y="-486.6" font-family="Arial" font-size="14.00" fill="#666666">[varchar(255)]</text>
<polygon fill="none" stroke="black" points="54.74,-443.6 54.74,-474.4 278.1,-474.4 278.1,-443.6 54.74,-443.6"/>
<text text-anchor="start" x="61.74" y="-455.8" font-family="Arial" font-size="14.00">email </text>
<text text-anchor="start" x="99.08" y="-455.8" font-family="Arial" font-size="14.00" fill="#666666">[varchar(255)]</text>
<polygon fill="none" stroke="black" points="54.74,-412.8 54.74,-443.6 278.1,-443.6 278.1,-412.8 54.74,-412.8"/>
<text text-anchor="start" x="61.74" y="-425" font-family="Arial" font-size="14.00">stripe_customer_id </text>
<text text-anchor="start" x="183.9" y="-425" font-family="Arial" font-size="14.00" fill="#666666">[varchar(255)]</text>
<polygon fill="none" stroke="black" points="54.74,-382 54.74,-412.8 278.1,-412.8 278.1,-382 54.74,-382"/>
<text text-anchor="start" x="61.74" y="-394.2" font-family="Arial" font-size="14.00">plan </text>
<text text-anchor="start" x="92.1" y="-394.2" font-family="Arial" font-size="14.00" fill="#666666">[varchar(20)]</text>
<polygon fill="none" stroke="black" points="54.74,-351.2 54.74,-382 278.1,-382 278.1,-351.2 54.74,-351.2"/>
<text text-anchor="start" x="61.74" y="-363.4" font-family="Arial" font-size="14.00">plan_expires_at </text>
<text text-anchor="start" x="164.48" y="-363.4" font-family="Arial" font-size="14.00" fill="#666666">[datetime]</text>
<polygon fill="none" stroke="black" points="54.74,-320.4 54.74,-351.2 278.1,-351.2 278.1,-320.4 54.74,-320.4"/>
<text text-anchor="start" x="61.74" y="-332.6" font-family="Arial" font-size="14.00">email_verified_at </text>
<text text-anchor="start" x="171.46" y="-332.6" font-family="Arial" font-size="14.00" fill="#666666">[datetime]</text>
<polygon fill="none" stroke="black" points="54.74,-289.6 54.74,-320.4 278.1,-320.4 278.1,-289.6 54.74,-289.6"/>
<text text-anchor="start" x="61.74" y="-301.8" font-family="Arial" font-size="14.00">password </text>
<text text-anchor="start" x="125.54" y="-301.8" font-family="Arial" font-size="14.00" fill="#666666">[varchar(255)]</text>
<polygon fill="none" stroke="black" points="54.74,-258.8 54.74,-289.6 278.1,-289.6 278.1,-258.8 54.74,-258.8"/>
<text text-anchor="start" x="61.74" y="-271" font-family="Arial" font-size="14.00">avatar_image_id </text>
<text text-anchor="start" x="169.14" y="-271" font-family="Arial" font-size="14.00" fill="#666666">[bigint unsigned]</text>
<polygon fill="none" stroke="black" points="54.74,-228 54.74,-258.8 278.1,-258.8 278.1,-228 54.74,-228"/>
<text text-anchor="start" x="61.74" y="-240.2" font-family="Arial" font-size="14.00">google_id </text>
<text text-anchor="start" x="126.35" y="-240.2" font-family="Arial" font-size="14.00" fill="#666666">[varchar(255)]</text>
<polygon fill="none" stroke="black" points="54.74,-197.2 54.74,-228 278.1,-228 278.1,-197.2 54.74,-197.2"/>
<text text-anchor="start" x="61.74" y="-209.4" font-family="Arial" font-size="14.00">avatar_url </text>
<text text-anchor="start" x="127.88" y="-209.4" font-family="Arial" font-size="14.00" fill="#666666">[varchar(255)]</text>
<polygon fill="none" stroke="black" points="54.74,-166.4 54.74,-197.2 278.1,-197.2 278.1,-166.4 54.74,-166.4"/>
<text text-anchor="start" x="61.74" y="-178.6" font-family="Arial" font-size="14.00">status </text>
<text text-anchor="start" x="102.98" y="-178.6" font-family="Arial" font-size="14.00" fill="#666666">[tinyint]</text>
<polygon fill="none" stroke="black" points="54.74,-135.6 54.74,-166.4 278.1,-166.4 278.1,-135.6 54.74,-135.6"/>
<text text-anchor="start" x="61.74" y="-147.8" font-family="Arial" font-size="14.00">remember_token </text>
<text text-anchor="start" x="171.45" y="-147.8" font-family="Arial" font-size="14.00" fill="#666666">[varchar(100)]</text>
<polygon fill="none" stroke="black" points="54.74,-104.8 54.74,-135.6 278.1,-135.6 278.1,-104.8 54.74,-104.8"/>
<text text-anchor="start" x="61.74" y="-117" font-family="Arial" font-size="14.00">created_at </text>
<text text-anchor="start" x="131.79" y="-117" font-family="Arial" font-size="14.00" fill="#666666">[datetime]</text>
<polygon fill="none" stroke="black" points="54.74,-74 54.74,-104.8 278.1,-104.8 278.1,-74 54.74,-74"/>
<text text-anchor="start" x="61.74" y="-86.2" font-family="Arial" font-size="14.00">updated_at </text>
<text text-anchor="start" x="135.7" y="-86.2" font-family="Arial" font-size="14.00" fill="#666666">[datetime]</text>
<polygon fill="none" stroke="black" points="54.74,-43.2 54.74,-74 278.1,-74 278.1,-43.2 54.74,-43.2"/>
<text text-anchor="start" x="61.74" y="-55.4" font-family="Arial" font-size="14.00">deleted_at </text>
<text text-anchor="start" x="131.02" y="-55.4" font-family="Arial" font-size="14.00" fill="#666666">[datetime]</text>
</g>
<!-- subscriptions&#45;&gt;users -->
<g id="edge1" class="edge">
<title>subscriptions:user_id&#45;&gt;users:id</title>
<path fill="none" stroke="black" d="M296.75,-1015.45C342.02,-963.55 331.39,-520.6 279.1,-520.6"/>
<polygon fill="black" stroke="black" points="296.72,-1015.47 285.79,-1016.29 292.03,-1018.01 288.23,-1020.08 288.23,-1020.08 288.23,-1020.08 292.03,-1018.01 290.08,-1024.19 296.72,-1015.47"/>
<text text-anchor="start" x="294.64" y="-1030.4" font-family="Arial" font-size="10.00">FOREIGN KEY (user_id) REFERENCES users (id)</text>
</g>
</g>
</svg>
