<?xml version="1.0" encoding="UTF-8" standalone="no"?>
<!DOCTYPE svg PUBLIC "-//W3C//DTD SVG 1.1//EN"
 "http://www.w3.org/Graphics/SVG/1.1/DTD/svg11.dtd">
<!-- Generated by graphviz version 12.1.2 (20240928.0832)
 -->
<!-- Title: users Pages: 1 -->
<svg width="1343pt" height="1468pt"
 viewBox="0.00 0.00 1343.12 1468.40" xmlns="http://www.w3.org/2000/svg" xmlns:xlink="http://www.w3.org/1999/xlink">
<g id="graph0" class="graph" transform="scale(1 1) rotate(0) translate(4 1464.4)">
<title>users</title>
<polygon fill="white" stroke="none" points="-4,4 -4,-1464.4 1339.12,-1464.4 1339.12,4 -4,4"/>
<!-- users -->
<g id="node1" class="node">
<title>users</title>
<polygon fill="#efefef" stroke="none" points="526.01,-851 526.01,-886.6 749.38,-886.6 749.38,-851 526.01,-851"/>
<polygon fill="none" stroke="black" points="526.01,-851 526.01,-886.6 749.38,-886.6 749.38,-851 526.01,-851"/>
<text text-anchor="start" x="556.95" y="-864.4" font-family="Arial Bold" font-size="18.00">users</text>
<text text-anchor="start" x="593.95" y="-864.4" font-family="Arial" font-size="14.00">    </text>
<text text-anchor="start" x="625.07" y="-864.4" font-family="Arial" font-size="14.00" fill="#666666">[BASE TABLE]</text>
<polygon fill="none" stroke="black" points="526.01,-820.2 526.01,-851 749.38,-851 749.38,-820.2 526.01,-820.2"/>
<text text-anchor="start" x="533.01" y="-832.4" font-family="Arial" font-size="14.00">id </text>
<text text-anchor="start" x="547.8" y="-832.4" font-family="Arial" font-size="14.00" fill="#666666">[bigint unsigned]</text>
<polygon fill="none" stroke="black" points="526.01,-789.4 526.01,-820.2 749.38,-820.2 749.38,-789.4 526.01,-789.4"/>
<text text-anchor="start" x="533.01" y="-801.6" font-family="Arial" font-size="14.00">name </text>
<text text-anchor="start" x="571.92" y="-801.6" font-family="Arial" font-size="14.00" fill="#666666">[varchar(255)]</text>
<polygon fill="none" stroke="black" points="526.01,-758.6 526.01,-789.4 749.38,-789.4 749.38,-758.6 526.01,-758.6"/>
<text text-anchor="start" x="533.01" y="-770.8" font-family="Arial" font-size="14.00">email </text>
<text text-anchor="start" x="570.36" y="-770.8" font-family="Arial" font-size="14.00" fill="#666666">[varchar(255)]</text>
<polygon fill="none" stroke="black" points="526.01,-727.8 526.01,-758.6 749.38,-758.6 749.38,-727.8 526.01,-727.8"/>
<text text-anchor="start" x="533.01" y="-740" font-family="Arial" font-size="14.00">stripe_customer_id </text>
<text text-anchor="start" x="655.18" y="-740" font-family="Arial" font-size="14.00" fill="#666666">[varchar(255)]</text>
<polygon fill="none" stroke="black" points="526.01,-697 526.01,-727.8 749.38,-727.8 749.38,-697 526.01,-697"/>
<text text-anchor="start" x="533.01" y="-709.2" font-family="Arial" font-size="14.00">plan </text>
<text text-anchor="start" x="563.37" y="-709.2" font-family="Arial" font-size="14.00" fill="#666666">[varchar(20)]</text>
<polygon fill="none" stroke="black" points="526.01,-666.2 526.01,-697 749.38,-697 749.38,-666.2 526.01,-666.2"/>
<text text-anchor="start" x="533.01" y="-678.4" font-family="Arial" font-size="14.00">plan_expires_at </text>
<text text-anchor="start" x="635.75" y="-678.4" font-family="Arial" font-size="14.00" fill="#666666">[datetime]</text>
<polygon fill="none" stroke="black" points="526.01,-635.4 526.01,-666.2 749.38,-666.2 749.38,-635.4 526.01,-635.4"/>
<text text-anchor="start" x="533.01" y="-647.6" font-family="Arial" font-size="14.00">email_verified_at </text>
<text text-anchor="start" x="642.74" y="-647.6" font-family="Arial" font-size="14.00" fill="#666666">[datetime]</text>
<polygon fill="none" stroke="black" points="526.01,-604.6 526.01,-635.4 749.38,-635.4 749.38,-604.6 526.01,-604.6"/>
<text text-anchor="start" x="533.01" y="-616.8" font-family="Arial" font-size="14.00">password </text>
<text text-anchor="start" x="596.82" y="-616.8" font-family="Arial" font-size="14.00" fill="#666666">[varchar(255)]</text>
<polygon fill="none" stroke="black" points="526.01,-573.8 526.01,-604.6 749.38,-604.6 749.38,-573.8 526.01,-573.8"/>
<text text-anchor="start" x="533.01" y="-586" font-family="Arial" font-size="14.00">avatar_image_id </text>
<text text-anchor="start" x="640.41" y="-586" font-family="Arial" font-size="14.00" fill="#666666">[bigint unsigned]</text>
<polygon fill="none" stroke="black" points="526.01,-543 526.01,-573.8 749.38,-573.8 749.38,-543 526.01,-543"/>
<text text-anchor="start" x="533.01" y="-555.2" font-family="Arial" font-size="14.00">google_id </text>
<text text-anchor="start" x="597.63" y="-555.2" font-family="Arial" font-size="14.00" fill="#666666">[varchar(255)]</text>
<polygon fill="none" stroke="black" points="526.01,-512.2 526.01,-543 749.38,-543 749.38,-512.2 526.01,-512.2"/>
<text text-anchor="start" x="533.01" y="-524.4" font-family="Arial" font-size="14.00">avatar_url </text>
<text text-anchor="start" x="599.16" y="-524.4" font-family="Arial" font-size="14.00" fill="#666666">[varchar(255)]</text>
<polygon fill="none" stroke="black" points="526.01,-481.4 526.01,-512.2 749.38,-512.2 749.38,-481.4 526.01,-481.4"/>
<text text-anchor="start" x="533.01" y="-493.6" font-family="Arial" font-size="14.00">status </text>
<text text-anchor="start" x="574.26" y="-493.6" font-family="Arial" font-size="14.00" fill="#666666">[tinyint]</text>
<polygon fill="none" stroke="black" points="526.01,-450.6 526.01,-481.4 749.38,-481.4 749.38,-450.6 526.01,-450.6"/>
<text text-anchor="start" x="533.01" y="-462.8" font-family="Arial" font-size="14.00">remember_token </text>
<text text-anchor="start" x="642.73" y="-462.8" font-family="Arial" font-size="14.00" fill="#666666">[varchar(100)]</text>
<polygon fill="none" stroke="black" points="526.01,-419.8 526.01,-450.6 749.38,-450.6 749.38,-419.8 526.01,-419.8"/>
<text text-anchor="start" x="533.01" y="-432" font-family="Arial" font-size="14.00">created_at </text>
<text text-anchor="start" x="603.06" y="-432" font-family="Arial" font-size="14.00" fill="#666666">[datetime]</text>
<polygon fill="none" stroke="black" points="526.01,-389 526.01,-419.8 749.38,-419.8 749.38,-389 526.01,-389"/>
<text text-anchor="start" x="533.01" y="-401.2" font-family="Arial" font-size="14.00">updated_at </text>
<text text-anchor="start" x="606.97" y="-401.2" font-family="Arial" font-size="14.00" fill="#666666">[datetime]</text>
<polygon fill="none" stroke="black" points="526.01,-358.2 526.01,-389 749.38,-389 749.38,-358.2 526.01,-358.2"/>
<text text-anchor="start" x="533.01" y="-370.4" font-family="Arial" font-size="14.00">deleted_at </text>
<text text-anchor="start" x="602.3" y="-370.4" font-family="Arial" font-size="14.00" fill="#666666">[datetime]</text>
<polygon fill="none" stroke="black" stroke-width="3" points="524.51,-356.7 524.51,-888.1 750.88,-888.1 750.88,-356.7 524.51,-356.7"/>
</g>
<!-- images -->
<g id="node6" class="node">
<title>images</title>
<polygon fill="#efefef" stroke="none" points="542.96,-197.2 542.96,-232.8 732.43,-232.8 732.43,-197.2 542.96,-197.2"/>
<polygon fill="none" stroke="black" points="542.96,-197.2 542.96,-232.8 732.43,-232.8 732.43,-197.2 542.96,-197.2"/>
<text text-anchor="start" x="549.96" y="-210.6" font-family="Arial Bold" font-size="18.00">images</text>
<text text-anchor="start" x="600.94" y="-210.6" font-family="Arial" font-size="14.00">    </text>
<text text-anchor="start" x="632.06" y="-210.6" font-family="Arial" font-size="14.00" fill="#666666">[BASE TABLE]</text>
<polygon fill="none" stroke="black" points="542.96,-166.4 542.96,-197.2 732.43,-197.2 732.43,-166.4 542.96,-166.4"/>
<text text-anchor="start" x="549.96" y="-178.6" font-family="Arial" font-size="14.00">id </text>
<text text-anchor="start" x="564.74" y="-178.6" font-family="Arial" font-size="14.00" fill="#666666">[bigint unsigned]</text>
<polygon fill="none" stroke="black" points="542.96,-135.6 542.96,-166.4 732.43,-166.4 732.43,-135.6 542.96,-135.6"/>
<text text-anchor="start" x="549.96" y="-147.8" font-family="Arial" font-size="14.00">file_name </text>
<text text-anchor="start" x="614.55" y="-147.8" font-family="Arial" font-size="14.00" fill="#666666">[varchar(200)]</text>
<polygon fill="none" stroke="black" points="542.96,-104.8 542.96,-135.6 732.43,-135.6 732.43,-104.8 542.96,-104.8"/>
<text text-anchor="start" x="549.96" y="-117" font-family="Arial" font-size="14.00">type </text>
<text text-anchor="start" x="580.31" y="-117" font-family="Arial" font-size="14.00" fill="#666666">[tinyint]</text>
<polygon fill="none" stroke="black" points="542.96,-74 542.96,-104.8 732.43,-104.8 732.43,-74 542.96,-74"/>
<text text-anchor="start" x="549.96" y="-86.2" font-family="Arial" font-size="14.00">created_at </text>
<text text-anchor="start" x="620.01" y="-86.2" font-family="Arial" font-size="14.00" fill="#666666">[datetime]</text>
<polygon fill="none" stroke="black" points="542.96,-43.2 542.96,-74 732.43,-74 732.43,-43.2 542.96,-43.2"/>
<text text-anchor="start" x="549.96" y="-55.4" font-family="Arial" font-size="14.00">updated_at </text>
<text text-anchor="start" x="623.92" y="-55.4" font-family="Arial" font-size="14.00" fill="#666666">[datetime]</text>
</g>
<!-- users&#45;&gt;images -->
<g id="edge5" class="edge">
<title>users:avatar_image_id&#45;&gt;images:id</title>
<path fill="none" stroke="black" d="M760.77,-588.74C930.88,-573.44 911.12,-181.8 733.43,-181.8"/>
<polygon fill="black" stroke="black" points="760.7,-588.74 750.51,-584.69 755.37,-588.98 751.05,-589.17 751.05,-589.17 751.05,-589.17 755.37,-588.98 750.91,-593.68 760.7,-588.74"/>
<text text-anchor="start" x="757.38" y="-599.2" font-family="Arial" font-size="10.00">FOREIGN KEY (avatar_image_id) REFERENCES images (id)</text>
</g>
<!-- alerts -->
<g id="node2" class="node">
<title>alerts</title>
<polygon fill="#efefef" stroke="none" points="43.2,-1381.6 43.2,-1417.2 264.19,-1417.2 264.19,-1381.6 43.2,-1381.6"/>
<polygon fill="none" stroke="black" points="43.2,-1381.6 43.2,-1417.2 264.19,-1417.2 264.19,-1381.6 43.2,-1381.6"/>
<text text-anchor="start" x="71.96" y="-1395" font-family="Arial Bold" font-size="18.00">alerts</text>
<text text-anchor="start" x="110.94" y="-1395" font-family="Arial" font-size="14.00">    </text>
<text text-anchor="start" x="142.06" y="-1395" font-family="Arial" font-size="14.00" fill="#666666">[BASE TABLE]</text>
<polygon fill="none" stroke="black" points="43.2,-1350.8 43.2,-1381.6 264.19,-1381.6 264.19,-1350.8 43.2,-1350.8"/>
<text text-anchor="start" x="50.2" y="-1363" font-family="Arial" font-size="14.00">id </text>
<text text-anchor="start" x="64.99" y="-1363" font-family="Arial" font-size="14.00" fill="#666666">[bigint unsigned]</text>
<polygon fill="none" stroke="black" points="43.2,-1320 43.2,-1350.8 264.19,-1350.8 264.19,-1320 43.2,-1320"/>
<text text-anchor="start" x="50.2" y="-1332.2" font-family="Arial" font-size="14.00">user_id </text>
<text text-anchor="start" x="100.01" y="-1332.2" font-family="Arial" font-size="14.00" fill="#666666">[bigint unsigned]</text>
<polygon fill="none" stroke="black" points="43.2,-1289.2 43.2,-1320 264.19,-1320 264.19,-1289.2 43.2,-1289.2"/>
<text text-anchor="start" x="50.2" y="-1301.4" font-family="Arial" font-size="14.00">type </text>
<text text-anchor="start" x="80.55" y="-1301.4" font-family="Arial" font-size="14.00" fill="#666666">[varchar(30)]</text>
<polygon fill="none" stroke="black" points="43.2,-1258.4 43.2,-1289.2 264.19,-1289.2 264.19,-1258.4 43.2,-1258.4"/>
<text text-anchor="start" x="50.2" y="-1270.6" font-family="Arial" font-size="14.00">symbol </text>
<text text-anchor="start" x="98.43" y="-1270.6" font-family="Arial" font-size="14.00" fill="#666666">[varchar(20)]</text>
<polygon fill="none" stroke="black" points="43.2,-1227.6 43.2,-1258.4 264.19,-1258.4 264.19,-1227.6 43.2,-1227.6"/>
<text text-anchor="start" x="50.2" y="-1239.8" font-family="Arial" font-size="14.00">price_threshold </text>
<text text-anchor="start" x="149.81" y="-1239.8" font-family="Arial" font-size="14.00" fill="#666666">[decimal(12,2)]</text>
<polygon fill="none" stroke="black" points="43.2,-1196.8 43.2,-1227.6 264.19,-1227.6 264.19,-1196.8 43.2,-1196.8"/>
<text text-anchor="start" x="50.2" y="-1209" font-family="Arial" font-size="14.00">price_direction </text>
<text text-anchor="start" x="145.14" y="-1209" font-family="Arial" font-size="14.00" fill="#666666">[varchar(10)]</text>
<polygon fill="none" stroke="black" points="43.2,-1166 43.2,-1196.8 264.19,-1196.8 264.19,-1166 43.2,-1166"/>
<text text-anchor="start" x="50.2" y="-1178.2" font-family="Arial" font-size="14.00">volume_threshold </text>
<text text-anchor="start" x="164.6" y="-1178.2" font-family="Arial" font-size="14.00" fill="#666666">[decimal(14,2)]</text>
<polygon fill="none" stroke="black" points="43.2,-1135.2 43.2,-1166 264.19,-1166 264.19,-1135.2 43.2,-1135.2"/>
<text text-anchor="start" x="50.2" y="-1147.4" font-family="Arial" font-size="14.00">volume_window </text>
<text text-anchor="start" x="153.7" y="-1147.4" font-family="Arial" font-size="14.00" fill="#666666">[int]</text>
<polygon fill="none" stroke="black" points="43.2,-1104.4 43.2,-1135.2 264.19,-1135.2 264.19,-1104.4 43.2,-1104.4"/>
<text text-anchor="start" x="50.2" y="-1116.6" font-family="Arial" font-size="14.00">is_active </text>
<text text-anchor="start" x="108.56" y="-1116.6" font-family="Arial" font-size="14.00" fill="#666666">[tinyint]</text>
<polygon fill="none" stroke="black" points="43.2,-1073.6 43.2,-1104.4 264.19,-1104.4 264.19,-1073.6 43.2,-1073.6"/>
<text text-anchor="start" x="50.2" y="-1085.8" font-family="Arial" font-size="14.00">last_triggered_at </text>
<text text-anchor="start" x="158.38" y="-1085.8" font-family="Arial" font-size="14.00" fill="#666666">[datetime]</text>
<polygon fill="none" stroke="black" points="43.2,-1042.8 43.2,-1073.6 264.19,-1073.6 264.19,-1042.8 43.2,-1042.8"/>
<text text-anchor="start" x="50.2" y="-1055" font-family="Arial" font-size="14.00">created_at </text>
<text text-anchor="start" x="120.25" y="-1055" font-family="Arial" font-size="14.00" fill="#666666">[datetime]</text>
<polygon fill="none" stroke="black" points="43.2,-1012 43.2,-1042.8 264.19,-1042.8 264.19,-1012 43.2,-1012"/>
<text text-anchor="start" x="50.2" y="-1024.2" font-family="Arial" font-size="14.00">updated_at </text>
<text text-anchor="start" x="124.16" y="-1024.2" font-family="Arial" font-size="14.00" fill="#666666">[datetime]</text>
</g>
<!-- alerts&#45;&gt;users -->
<g id="edge1" class="edge">
<title>alerts:user_id&#45;&gt;users:id</title>
<path fill="none" stroke="black" d="M275.35,-1333.65C340.94,-1309.14 274.25,-1034.92 316.7,-968.8 376.07,-876.32 415.12,-835.6 525.01,-835.6"/>
<polygon fill="black" stroke="black" points="275.38,-1333.64 264.76,-1330.91 270.12,-1334.55 265.85,-1335.29 265.85,-1335.29 265.85,-1335.29 270.12,-1334.55 266.29,-1339.78 275.38,-1333.64"/>
<text text-anchor="start" x="152.11" y="-1319.4" font-family="Arial" font-size="10.00">FOREIGN KEY (user_id) REFERENCES users (id)</text>
</g>
<!-- contacts -->
<g id="node3" class="node">
<title>contacts</title>
<polygon fill="#efefef" stroke="none" points="368.96,-1320 368.96,-1355.6 566.43,-1355.6 566.43,-1320 368.96,-1320"/>
<polygon fill="none" stroke="black" points="368.96,-1320 368.96,-1355.6 566.43,-1355.6 566.43,-1320 368.96,-1320"/>
<text text-anchor="start" x="375.96" y="-1333.4" font-family="Arial Bold" font-size="18.00">contacts</text>
<text text-anchor="start" x="434.94" y="-1333.4" font-family="Arial" font-size="14.00">    </text>
<text text-anchor="start" x="466.06" y="-1333.4" font-family="Arial" font-size="14.00" fill="#666666">[BASE TABLE]</text>
<polygon fill="none" stroke="black" points="368.96,-1289.2 368.96,-1320 566.43,-1320 566.43,-1289.2 368.96,-1289.2"/>
<text text-anchor="start" x="375.96" y="-1301.4" font-family="Arial" font-size="14.00">id </text>
<text text-anchor="start" x="390.75" y="-1301.4" font-family="Arial" font-size="14.00" fill="#666666">[bigint unsigned]</text>
<polygon fill="none" stroke="black" points="368.96,-1258.4 368.96,-1289.2 566.43,-1289.2 566.43,-1258.4 368.96,-1258.4"/>
<text text-anchor="start" x="375.96" y="-1270.6" font-family="Arial" font-size="14.00">user_id </text>
<text text-anchor="start" x="425.77" y="-1270.6" font-family="Arial" font-size="14.00" fill="#666666">[bigint unsigned]</text>
<polygon fill="none" stroke="black" points="368.96,-1227.6 368.96,-1258.4 566.43,-1258.4 566.43,-1227.6 368.96,-1227.6"/>
<text text-anchor="start" x="375.96" y="-1239.8" font-family="Arial" font-size="14.00">type </text>
<text text-anchor="start" x="406.32" y="-1239.8" font-family="Arial" font-size="14.00" fill="#666666">[tinyint]</text>
<polygon fill="none" stroke="black" points="368.96,-1196.8 368.96,-1227.6 566.43,-1227.6 566.43,-1196.8 368.96,-1196.8"/>
<text text-anchor="start" x="375.96" y="-1209" font-family="Arial" font-size="14.00">title </text>
<text text-anchor="start" x="401.64" y="-1209" font-family="Arial" font-size="14.00" fill="#666666">[varchar(100)]</text>
<polygon fill="none" stroke="black" points="368.96,-1166 368.96,-1196.8 566.43,-1196.8 566.43,-1166 368.96,-1166"/>
<text text-anchor="start" x="375.96" y="-1178.2" font-family="Arial" font-size="14.00">message </text>
<text text-anchor="start" x="436.66" y="-1178.2" font-family="Arial" font-size="14.00" fill="#666666">[varchar(500)]</text>
<polygon fill="none" stroke="black" points="368.96,-1135.2 368.96,-1166 566.43,-1166 566.43,-1135.2 368.96,-1135.2"/>
<text text-anchor="start" x="375.96" y="-1147.4" font-family="Arial" font-size="14.00">image_id </text>
<text text-anchor="start" x="436.67" y="-1147.4" font-family="Arial" font-size="14.00" fill="#666666">[bigint unsigned]</text>
<polygon fill="none" stroke="black" points="368.96,-1104.4 368.96,-1135.2 566.43,-1135.2 566.43,-1104.4 368.96,-1104.4"/>
<text text-anchor="start" x="375.96" y="-1116.6" font-family="Arial" font-size="14.00">created_at </text>
<text text-anchor="start" x="446.01" y="-1116.6" font-family="Arial" font-size="14.00" fill="#666666">[datetime]</text>
<polygon fill="none" stroke="black" points="368.96,-1073.6 368.96,-1104.4 566.43,-1104.4 566.43,-1073.6 368.96,-1073.6"/>
<text text-anchor="start" x="375.96" y="-1085.8" font-family="Arial" font-size="14.00">updated_at </text>
<text text-anchor="start" x="449.92" y="-1085.8" font-family="Arial" font-size="14.00" fill="#666666">[datetime]</text>
</g>
<!-- contacts&#45;&gt;users -->
<g id="edge2" class="edge">
<title>contacts:user_id&#45;&gt;users:id</title>
<path fill="none" stroke="black" d="M577.42,-1271.09C615.44,-1247.71 576.34,-1079.7 566.43,-1030.4 557.18,-984.37 535.41,-978.8 526.01,-932.8 517.37,-890.47 481.81,-835.6 525.01,-835.6"/>
<polygon fill="black" stroke="black" points="577.4,-1271.1 566.57,-1269.37 572.25,-1272.49 568.07,-1273.62 568.07,-1273.62 568.07,-1273.62 572.25,-1272.49 568.93,-1278.06 577.4,-1271.1"/>
<text text-anchor="start" x="574.43" y="-1283.8" font-family="Arial" font-size="10.00">FOREIGN KEY (user_id) REFERENCES users (id)</text>
</g>
<!-- push_subscriptions -->
<g id="node4" class="node">
<title>push_subscriptions</title>
<polygon fill="#efefef" stroke="none" points="670.45,-1304.6 670.45,-1340.2 946.94,-1340.2 946.94,-1304.6 670.45,-1304.6"/>
<polygon fill="none" stroke="black" points="670.45,-1304.6 670.45,-1340.2 946.94,-1340.2 946.94,-1304.6 670.45,-1304.6"/>
<text text-anchor="start" x="677.45" y="-1318" font-family="Arial Bold" font-size="18.00">push_subscriptions</text>
<text text-anchor="start" x="815.45" y="-1318" font-family="Arial" font-size="14.00">    </text>
<text text-anchor="start" x="846.57" y="-1318" font-family="Arial" font-size="14.00" fill="#666666">[BASE TABLE]</text>
<polygon fill="none" stroke="black" points="670.45,-1273.8 670.45,-1304.6 946.94,-1304.6 946.94,-1273.8 670.45,-1273.8"/>
<text text-anchor="start" x="677.45" y="-1286" font-family="Arial" font-size="14.00">id </text>
<text text-anchor="start" x="692.23" y="-1286" font-family="Arial" font-size="14.00" fill="#666666">[bigint unsigned]</text>
<polygon fill="none" stroke="black" points="670.45,-1243 670.45,-1273.8 946.94,-1273.8 946.94,-1243 670.45,-1243"/>
<text text-anchor="start" x="677.45" y="-1255.2" font-family="Arial" font-size="14.00">user_id </text>
<text text-anchor="start" x="727.26" y="-1255.2" font-family="Arial" font-size="14.00" fill="#666666">[bigint unsigned]</text>
<polygon fill="none" stroke="black" points="670.45,-1212.2 670.45,-1243 946.94,-1243 946.94,-1212.2 670.45,-1212.2"/>
<text text-anchor="start" x="677.45" y="-1224.4" font-family="Arial" font-size="14.00">endpoint </text>
<text text-anchor="start" x="735.05" y="-1224.4" font-family="Arial" font-size="14.00" fill="#666666">[text]</text>
<polygon fill="none" stroke="black" points="670.45,-1181.4 670.45,-1212.2 946.94,-1212.2 946.94,-1181.4 670.45,-1181.4"/>
<text text-anchor="start" x="677.45" y="-1193.6" font-family="Arial" font-size="14.00">p256dh </text>
<text text-anchor="start" x="728.05" y="-1193.6" font-family="Arial" font-size="14.00" fill="#666666">[text]</text>
<polygon fill="none" stroke="black" points="670.45,-1150.6 670.45,-1181.4 946.94,-1181.4 946.94,-1150.6 670.45,-1150.6"/>
<text text-anchor="start" x="677.45" y="-1162.8" font-family="Arial" font-size="14.00">auth </text>
<text text-anchor="start" x="708.59" y="-1162.8" font-family="Arial" font-size="14.00" fill="#666666">[text]</text>
<polygon fill="none" stroke="black" points="670.45,-1119.8 670.45,-1150.6 946.94,-1150.6 946.94,-1119.8 670.45,-1119.8"/>
<text text-anchor="start" x="677.45" y="-1132" font-family="Arial" font-size="14.00">created_at </text>
<text text-anchor="start" x="747.5" y="-1132" font-family="Arial" font-size="14.00" fill="#666666">[datetime]</text>
<polygon fill="none" stroke="black" points="670.45,-1089 670.45,-1119.8 946.94,-1119.8 946.94,-1089 670.45,-1089"/>
<text text-anchor="start" x="677.45" y="-1101.2" font-family="Arial" font-size="14.00">updated_at </text>
<text text-anchor="start" x="751.41" y="-1101.2" font-family="Arial" font-size="14.00" fill="#666666">[datetime]</text>
</g>
<!-- push_subscriptions&#45;&gt;users -->
<g id="edge3" class="edge">
<title>push_subscriptions:user_id&#45;&gt;users:id</title>
<path fill="none" stroke="black" d="M659.1,-1257.85C580.13,-1248.88 642.99,-1132.35 670.45,-1045.8 688.97,-987.41 730.69,-991.14 749.38,-932.8 762.56,-891.66 793.58,-835.6 750.38,-835.6"/>
<polygon fill="black" stroke="black" points="659.13,-1257.85 668.87,-1262.88 664.46,-1258.13 668.78,-1258.36 668.78,-1258.36 668.78,-1258.36 664.46,-1258.13 669.35,-1253.89 659.13,-1257.85"/>
<text text-anchor="start" x="616.41" y="-1242.4" font-family="Arial" font-size="10.00">FOREIGN KEY (user_id) REFERENCES users (id)</text>
</g>
<!-- subscriptions -->
<g id="node5" class="node">
<title>subscriptions</title>
<polygon fill="#efefef" stroke="none" points="1051.48,-1381.6 1051.48,-1417.2 1291.92,-1417.2 1291.92,-1381.6 1051.48,-1381.6"/>
<polygon fill="none" stroke="black" points="1051.48,-1381.6 1051.48,-1417.2 1291.92,-1417.2 1291.92,-1381.6 1051.48,-1381.6"/>
<text text-anchor="start" x="1061.95" y="-1395" font-family="Arial Bold" font-size="18.00">subscriptions</text>
<text text-anchor="start" x="1156.95" y="-1395" font-family="Arial" font-size="14.00">    </text>
<text text-anchor="start" x="1188.07" y="-1395" font-family="Arial" font-size="14.00" fill="#666666">[BASE TABLE]</text>
<polygon fill="none" stroke="black" points="1051.48,-1350.8 1051.48,-1381.6 1291.92,-1381.6 1291.92,-1350.8 1051.48,-1350.8"/>
<text text-anchor="start" x="1058.48" y="-1363" font-family="Arial" font-size="14.00">id </text>
<text text-anchor="start" x="1073.26" y="-1363" font-family="Arial" font-size="14.00" fill="#666666">[bigint unsigned]</text>
<polygon fill="none" stroke="black" points="1051.48,-1320 1051.48,-1350.8 1291.92,-1350.8 1291.92,-1320 1051.48,-1320"/>
<text text-anchor="start" x="1058.48" y="-1332.2" font-family="Arial" font-size="14.00">user_id </text>
<text text-anchor="start" x="1108.28" y="-1332.2" font-family="Arial" font-size="14.00" fill="#666666">[bigint unsigned]</text>
<polygon fill="none" stroke="black" points="1051.48,-1289.2 1051.48,-1320 1291.92,-1320 1291.92,-1289.2 1051.48,-1289.2"/>
<text text-anchor="start" x="1058.48" y="-1301.4" font-family="Arial" font-size="14.00">stripe_customer_id </text>
<text text-anchor="start" x="1180.64" y="-1301.4" font-family="Arial" font-size="14.00" fill="#666666">[varchar(255)]</text>
<polygon fill="none" stroke="black" points="1051.48,-1258.4 1051.48,-1289.2 1291.92,-1289.2 1291.92,-1258.4 1051.48,-1258.4"/>
<text text-anchor="start" x="1058.48" y="-1270.6" font-family="Arial" font-size="14.00">stripe_subscription_id </text>
<text text-anchor="start" x="1197.77" y="-1270.6" font-family="Arial" font-size="14.00" fill="#666666">[varchar(255)]</text>
<polygon fill="none" stroke="black" points="1051.48,-1227.6 1051.48,-1258.4 1291.92,-1258.4 1291.92,-1227.6 1051.48,-1227.6"/>
<text text-anchor="start" x="1058.48" y="-1239.8" font-family="Arial" font-size="14.00">stripe_price_id </text>
<text text-anchor="start" x="1153.41" y="-1239.8" font-family="Arial" font-size="14.00" fill="#666666">[varchar(255)]</text>
<polygon fill="none" stroke="black" points="1051.48,-1196.8 1051.48,-1227.6 1291.92,-1227.6 1291.92,-1196.8 1051.48,-1196.8"/>
<text text-anchor="start" x="1058.48" y="-1209" font-family="Arial" font-size="14.00">plan </text>
<text text-anchor="start" x="1088.83" y="-1209" font-family="Arial" font-size="14.00" fill="#666666">[varchar(20)]</text>
<polygon fill="none" stroke="black" points="1051.48,-1166 1051.48,-1196.8 1291.92,-1196.8 1291.92,-1166 1051.48,-1166"/>
<text text-anchor="start" x="1058.48" y="-1178.2" font-family="Arial" font-size="14.00">status </text>
<text text-anchor="start" x="1099.72" y="-1178.2" font-family="Arial" font-size="14.00" fill="#666666">[varchar(20)]</text>
<polygon fill="none" stroke="black" points="1051.48,-1135.2 1051.48,-1166 1291.92,-1166 1291.92,-1135.2 1051.48,-1135.2"/>
<text text-anchor="start" x="1058.48" y="-1147.4" font-family="Arial" font-size="14.00">current_period_start </text>
<text text-anchor="start" x="1187.65" y="-1147.4" font-family="Arial" font-size="14.00" fill="#666666">[datetime]</text>
<polygon fill="none" stroke="black" points="1051.48,-1104.4 1051.48,-1135.2 1291.92,-1135.2 1291.92,-1104.4 1051.48,-1104.4"/>
<text text-anchor="start" x="1058.48" y="-1116.6" font-family="Arial" font-size="14.00">current_period_end </text>
<text text-anchor="start" x="1183.79" y="-1116.6" font-family="Arial" font-size="14.00" fill="#666666">[datetime]</text>
<polygon fill="none" stroke="black" points="1051.48,-1073.6 1051.48,-1104.4 1291.92,-1104.4 1291.92,-1073.6 1051.48,-1073.6"/>
<text text-anchor="start" x="1058.48" y="-1085.8" font-family="Arial" font-size="14.00">canceled_at </text>
<text text-anchor="start" x="1137.87" y="-1085.8" font-family="Arial" font-size="14.00" fill="#666666">[datetime]</text>
<polygon fill="none" stroke="black" points="1051.48,-1042.8 1051.48,-1073.6 1291.92,-1073.6 1291.92,-1042.8 1051.48,-1042.8"/>
<text text-anchor="start" x="1058.48" y="-1055" font-family="Arial" font-size="14.00">created_at </text>
<text text-anchor="start" x="1128.52" y="-1055" font-family="Arial" font-size="14.00" fill="#666666">[datetime]</text>
<polygon fill="none" stroke="black" points="1051.48,-1012 1051.48,-1042.8 1291.92,-1042.8 1291.92,-1012 1051.48,-1012"/>
<text text-anchor="start" x="1058.48" y="-1024.2" font-family="Arial" font-size="14.00">updated_at </text>
<text text-anchor="start" x="1132.43" y="-1024.2" font-family="Arial" font-size="14.00" fill="#666666">[datetime]</text>
</g>
<!-- subscriptions&#45;&gt;users -->
<g id="edge4" class="edge">
<title>subscriptions:user_id&#45;&gt;users:id</title>
<path fill="none" stroke="black" d="M1040.33,-1333.64C974.92,-1308.99 1043.67,-1033.24 998.7,-968.8 927.01,-866.1 875.62,-835.6 750.38,-835.6"/>
<polygon fill="black" stroke="black" points="1040.29,-1333.63 1049.38,-1339.78 1045.55,-1334.54 1049.82,-1335.29 1049.82,-1335.29 1049.82,-1335.29 1045.55,-1334.54 1050.92,-1330.91 1040.29,-1333.63"/>
<text text-anchor="start" x="817.32" y="-1345.4" font-family="Arial" font-size="10.00">FOREIGN KEY (user_id) REFERENCES users (id)</text>
</g>
</g>
</svg>
